M48
METRIC,LZ,000.000
;FILE_FORMAT=3:3
;TYPE=PLATED
;Layer: PTH_Through
;EasyEDA v6.5.50, 2025-08-07 23:34:14
;4f77d7e6b91a4c7688e86251b08845de,d5ecf923025d49a2b3c084a081e0ad24,10
;Gerber Generator version 0.2
;Holesize 1 = 0.751 mm
T01C0.751
;Holesize 2 = 0.800 mm
T02C0.800
;Holesize 3 = 0.915 mm
T03C0.915
;Holesize 4 = 1.000 mm
T04C1.000
;Holesize 5 = 1.101 mm
T05C1.101
;Holesize 6 = 1.200 mm
T06C1.200
%
G05
G90
T01
X021425Y-033194
X031425Y-033194
X-033058Y-037893
X-023058Y-037893
X-032884Y-057752
X-032884Y-047752
X024083Y-055880
X034083Y-055880
X020663Y-048434
X030663Y-048434
X-022676Y-010000
X-022676Y000000
X-006928Y-010000
X-006928Y000000
X010979Y-010000
X010979Y000000
X027489Y-010000
X027489Y000000
T02
X-021184Y-029892
X-019184Y-029892
X-023470Y-064563
X-021470Y-064563
X-028582Y-065071
X-030582Y-065071
T03
X038871Y-016938
X041411Y-016938
X043951Y-016938
X046491Y-016938
X032131Y-066421
X029591Y-066421
X027051Y-066421
X024511Y-066421
X-009285Y-033194G85X-009239Y-033194
X-009262Y-035734
X-009262Y-038274
X-009262Y-040814
X-009262Y-043354
X-009262Y-045894
X-009262Y-048434
X-009262Y-050974
X-009262Y-053514
X-009262Y-056054
X-009262Y-058594
X-009262Y-061134
X-009262Y-063674
X-009262Y-066214
X-009262Y-068754
X016138Y-068754
X016138Y-066214
X016138Y-063674
X016138Y-061134
X016138Y-058594
X016138Y-056054
X016138Y-053514
X016138Y-050974
X016138Y-048434
X016138Y-045894
X016138Y-043354
X016138Y-040814
X016138Y-038274
X016138Y-035734
X016138Y-033194
T04
X039173Y-033194
X041713Y-033194
X-018660Y-051355
X-016120Y-051355
X055032Y-039417
X046332Y-039417
X041713Y-050974
X041713Y-048434
X041713Y-045894
T05
X-023505Y-080819
X-026007Y-080819
T06
X053349Y-063039
X045729Y-063039
X-026586Y-031634
X-033086Y-031634
X-033086Y-027134
X-026586Y-027134
X-026459Y-010044
X-032959Y-010044
X-032959Y-005544
X-026459Y-005544
X-010457Y-010044
X-016957Y-010044
X-016957Y-005544
X-010457Y-005544
X007196Y-009917
X000696Y-009917
X000696Y-005417
X007196Y-005417
X023452Y-009790
X016952Y-009790
X016952Y-005290
X023452Y-005290
X-026026Y-072940
X-023486Y-072950
X-028566Y-072940
M30
