G04 Layer: TopLayer*
G04 EasyEDA v6.5.50, 2025-08-07 23:34:14*
G04 4f77d7e6b91a4c7688e86251b08845de,d5ecf923025d49a2b3c084a081e0ad24,10*
G04 Gerber Generator version 0.2*
G04 Scale: 100 percent, Rotated: No, Reflected: No *
G04 Dimensions in millimeters *
G04 leading zeros omitted , absolute positions ,4 integer and 5 decimal *
%FSLAX45Y45*%
%MOMM*%

%ADD10C,1.3000*%
%ADD11C,1.6000*%
%ADD12C,1.8000*%
%ADD13R,1.7000X1.7000*%
%ADD14C,1.7000*%
%ADD15C,1.7780*%
%ADD16R,1.8000X1.8000*%
%ADD17C,1.4000*%
%ADD18C,2.0000*%
%ADD19R,1.5240X1.5240*%
%ADD20C,1.5240*%
%ADD21O,1.7999964X2.5999948*%
%ADD22R,1.8000X2.6000*%
%ADD23R,0.0125X2.6000*%

%LPD*%
G36*
X-3938117Y-8830665D02*
G01*
X-3942029Y-8829903D01*
X-3945280Y-8827668D01*
X-3947515Y-8824417D01*
X-3948277Y-8820505D01*
X-3948277Y-8400542D01*
X-3947464Y-8396579D01*
X-3945178Y-8393226D01*
X-3941775Y-8391042D01*
X-3937812Y-8390432D01*
X-3933901Y-8391296D01*
X-3930599Y-8393684D01*
X-3928516Y-8397138D01*
X-3926382Y-8403234D01*
X-3923080Y-8411210D01*
X-3919372Y-8419033D01*
X-3915206Y-8426653D01*
X-3910685Y-8434019D01*
X-3905758Y-8441131D01*
X-3900525Y-8448090D01*
X-3894886Y-8454644D01*
X-3888841Y-8460994D01*
X-3698494Y-8651341D01*
X-3692144Y-8657386D01*
X-3685540Y-8663025D01*
X-3678682Y-8668258D01*
X-3671519Y-8673236D01*
X-3664153Y-8677706D01*
X-3656533Y-8681821D01*
X-3648710Y-8685580D01*
X-3640683Y-8688933D01*
X-3632555Y-8691829D01*
X-3624224Y-8694267D01*
X-3615791Y-8696299D01*
X-3607257Y-8697823D01*
X-3598672Y-8698992D01*
X-3590036Y-8699703D01*
X-3581247Y-8699906D01*
X4965598Y-8699906D01*
X4974386Y-8699703D01*
X4983022Y-8698992D01*
X4991608Y-8697823D01*
X5000142Y-8696299D01*
X5008524Y-8694267D01*
X5016855Y-8691829D01*
X5025034Y-8688933D01*
X5033010Y-8685580D01*
X5040833Y-8681821D01*
X5048453Y-8677706D01*
X5055870Y-8673236D01*
X5062982Y-8668258D01*
X5069890Y-8663025D01*
X5076444Y-8657386D01*
X5082844Y-8651341D01*
X5451856Y-8282279D01*
X5457901Y-8275929D01*
X5463540Y-8269376D01*
X5468823Y-8262518D01*
X5473700Y-8255304D01*
X5478221Y-8247938D01*
X5482386Y-8240318D01*
X5486095Y-8232495D01*
X5489448Y-8224469D01*
X5492343Y-8216341D01*
X5494782Y-8208009D01*
X5496814Y-8199577D01*
X5498388Y-8191042D01*
X5499506Y-8182457D01*
X5500166Y-8173821D01*
X5500420Y-8165033D01*
X5500420Y-6400495D01*
X5500776Y-6397802D01*
X5501792Y-6395364D01*
X5504434Y-6390792D01*
X5512257Y-6373469D01*
X5517997Y-6356350D01*
X5520436Y-6352438D01*
X5620156Y-6252718D01*
X5626201Y-6246317D01*
X5631840Y-6239764D01*
X5637123Y-6232906D01*
X5642000Y-6225692D01*
X5646521Y-6218326D01*
X5650687Y-6210706D01*
X5654395Y-6202883D01*
X5657748Y-6194907D01*
X5660644Y-6186728D01*
X5663082Y-6178397D01*
X5665114Y-6169964D01*
X5666689Y-6161481D01*
X5667806Y-6152896D01*
X5668467Y-6144260D01*
X5668721Y-6135420D01*
X5668721Y-4038142D01*
X5669026Y-4035653D01*
X5669940Y-4033367D01*
X5674868Y-4024325D01*
X5682234Y-4006850D01*
X5687822Y-3988663D01*
X5691581Y-3970070D01*
X5693460Y-3951173D01*
X5693460Y-3932224D01*
X5691581Y-3913276D01*
X5687822Y-3894734D01*
X5682234Y-3876548D01*
X5674868Y-3859072D01*
X5665774Y-3842410D01*
X5655056Y-3826713D01*
X5642864Y-3812133D01*
X5629249Y-3798874D01*
X5614416Y-3786987D01*
X5598464Y-3776675D01*
X5581548Y-3768090D01*
X5563870Y-3761079D01*
X5545632Y-3755999D01*
X5526887Y-3752646D01*
X5507990Y-3751224D01*
X5488990Y-3751732D01*
X5470144Y-3754069D01*
X5451602Y-3758336D01*
X5433618Y-3764330D01*
X5416296Y-3772154D01*
X5399887Y-3781653D01*
X5384444Y-3792728D01*
X5370220Y-3805326D01*
X5357317Y-3819245D01*
X5345836Y-3834384D01*
X5335930Y-3850640D01*
X5327700Y-3867658D01*
X5321198Y-3885539D01*
X5316524Y-3903979D01*
X5313680Y-3922725D01*
X5312714Y-3941673D01*
X5313680Y-3960672D01*
X5316524Y-3979418D01*
X5321198Y-3997807D01*
X5327700Y-4015740D01*
X5337352Y-4035856D01*
X5337708Y-4038549D01*
X5337708Y-6062878D01*
X5336946Y-6066688D01*
X5334711Y-6069990D01*
X5286146Y-6118656D01*
X5284216Y-6120130D01*
X5281930Y-6121146D01*
X5269738Y-6124905D01*
X5252262Y-6132271D01*
X5235600Y-6141313D01*
X5219903Y-6152032D01*
X5205323Y-6164224D01*
X5192064Y-6177838D01*
X5180228Y-6192672D01*
X5169916Y-6208623D01*
X5161280Y-6225590D01*
X5154320Y-6243269D01*
X5149189Y-6261506D01*
X5145887Y-6280251D01*
X5144465Y-6299149D01*
X5144973Y-6318097D01*
X5147310Y-6336995D01*
X5151526Y-6355537D01*
X5157571Y-6373469D01*
X5165394Y-6390792D01*
X5168036Y-6395364D01*
X5169052Y-6397802D01*
X5169408Y-6400495D01*
X5169408Y-8092440D01*
X5168646Y-8096351D01*
X5166410Y-8099602D01*
X4900117Y-8365896D01*
X4896815Y-8368080D01*
X4892954Y-8368842D01*
X2722829Y-8368842D01*
X2718917Y-8368080D01*
X2715615Y-8365896D01*
X2713431Y-8362645D01*
X2712669Y-8358733D01*
X2713431Y-8354872D01*
X2715615Y-8351520D01*
X2809341Y-8257794D01*
X2815386Y-8251444D01*
X2821025Y-8244890D01*
X2826308Y-8237931D01*
X2831236Y-8230819D01*
X2835757Y-8223453D01*
X2839872Y-8215833D01*
X2843631Y-8208009D01*
X2846933Y-8200034D01*
X2849829Y-8191804D01*
X2852267Y-8183524D01*
X2854299Y-8175091D01*
X2855874Y-8166557D01*
X2856992Y-8158022D01*
X2857703Y-8149336D01*
X2857906Y-8140547D01*
X2857906Y-7235545D01*
X2858719Y-7231634D01*
X2860903Y-7228382D01*
X3263493Y-6825742D01*
X3265525Y-6824167D01*
X3267913Y-6823151D01*
X3273450Y-6821627D01*
X3291027Y-6814718D01*
X3302711Y-6808774D01*
X3304997Y-6807911D01*
X3307384Y-6807555D01*
X3530498Y-6807555D01*
X3539286Y-6807403D01*
X3547922Y-6806692D01*
X3556508Y-6805523D01*
X3565042Y-6803999D01*
X3573424Y-6801967D01*
X3581755Y-6799529D01*
X3589934Y-6796633D01*
X3597910Y-6793280D01*
X3605733Y-6789521D01*
X3613353Y-6785406D01*
X3620770Y-6780936D01*
X3627882Y-6775958D01*
X3634790Y-6770725D01*
X3641344Y-6765086D01*
X3647744Y-6759041D01*
X3761841Y-6644894D01*
X3767886Y-6638493D01*
X3773525Y-6631990D01*
X3778808Y-6625031D01*
X3783736Y-6617919D01*
X3788257Y-6610553D01*
X3792372Y-6602933D01*
X3796080Y-6595109D01*
X3799433Y-6587134D01*
X3802329Y-6578904D01*
X3804767Y-6570624D01*
X3806799Y-6562242D01*
X3808374Y-6553657D01*
X3809492Y-6545122D01*
X3810203Y-6536435D01*
X3810406Y-6527647D01*
X3810406Y-5824677D01*
X3810203Y-5815888D01*
X3809492Y-5807252D01*
X3808374Y-5798718D01*
X3806799Y-5790133D01*
X3804767Y-5781700D01*
X3802329Y-5773420D01*
X3799433Y-5765241D01*
X3796080Y-5757265D01*
X3792372Y-5749442D01*
X3788257Y-5741822D01*
X3783736Y-5734405D01*
X3778808Y-5727344D01*
X3773525Y-5720384D01*
X3767886Y-5713831D01*
X3761841Y-5707430D01*
X3570528Y-5516118D01*
X3568903Y-5513984D01*
X3567887Y-5511546D01*
X3565702Y-5503418D01*
X3559505Y-5487263D01*
X3551631Y-5471871D01*
X3542233Y-5457342D01*
X3531311Y-5443829D01*
X3519068Y-5431586D01*
X3505606Y-5420664D01*
X3491077Y-5411317D01*
X3475634Y-5403392D01*
X3459479Y-5397246D01*
X3451504Y-5395061D01*
X3449065Y-5394045D01*
X3446983Y-5392420D01*
X3182569Y-5128056D01*
X3176168Y-5121960D01*
X3169564Y-5116372D01*
X3162706Y-5111038D01*
X3155543Y-5106162D01*
X3148177Y-5101691D01*
X3140557Y-5097475D01*
X3132734Y-5093817D01*
X3124758Y-5090464D01*
X3116580Y-5087569D01*
X3108248Y-5085130D01*
X3099816Y-5083098D01*
X3091332Y-5081473D01*
X3082747Y-5080355D01*
X3074111Y-5079746D01*
X3065272Y-5079441D01*
X2817164Y-5079441D01*
X2813253Y-5078730D01*
X2810002Y-5076444D01*
X2807766Y-5073192D01*
X2807004Y-5069281D01*
X2807004Y-4670298D01*
X2807766Y-4666437D01*
X2810002Y-4663084D01*
X2910840Y-4562246D01*
X2916885Y-4555845D01*
X2922524Y-4549292D01*
X2927807Y-4542434D01*
X2932684Y-4535220D01*
X2937205Y-4527854D01*
X2941370Y-4520234D01*
X2945079Y-4512411D01*
X2948432Y-4504436D01*
X2951327Y-4496257D01*
X2953766Y-4487926D01*
X2955798Y-4479493D01*
X2957372Y-4471060D01*
X2958490Y-4462424D01*
X2959150Y-4453788D01*
X2959404Y-4444949D01*
X2959404Y-3371087D01*
X2960268Y-3366973D01*
X2962656Y-3363569D01*
X2966212Y-3361436D01*
X2970326Y-3360877D01*
X2974289Y-3362045D01*
X2977489Y-3364737D01*
X2979369Y-3368395D01*
X2980385Y-3372053D01*
X2986735Y-3388715D01*
X2994863Y-3404666D01*
X3004566Y-3419601D01*
X3015792Y-3433521D01*
X3028442Y-3446068D01*
X3042310Y-3457295D01*
X3057245Y-3467049D01*
X3073146Y-3475126D01*
X3089808Y-3481527D01*
X3107080Y-3486150D01*
X3124708Y-3488944D01*
X3142538Y-3489858D01*
X3160318Y-3488944D01*
X3177946Y-3486150D01*
X3183991Y-3484930D01*
X3843477Y-3484930D01*
X3847795Y-3485896D01*
X3866896Y-3492703D01*
X3884980Y-3496919D01*
X3903421Y-3499307D01*
X3921963Y-3499815D01*
X3940505Y-3498392D01*
X3958793Y-3495090D01*
X3976624Y-3489858D01*
X3993845Y-3482898D01*
X4010253Y-3474161D01*
X4025696Y-3463798D01*
X4037888Y-3453587D01*
X4041089Y-3451758D01*
X4044645Y-3451199D01*
X4048251Y-3451910D01*
X4051300Y-3453892D01*
X4055719Y-3458006D01*
X4070604Y-3469182D01*
X4086504Y-3478682D01*
X4103319Y-3486556D01*
X4120896Y-3492703D01*
X4125010Y-3493668D01*
X4125010Y-3365703D01*
X4104436Y-3365703D01*
X4100169Y-3364788D01*
X4096715Y-3362198D01*
X4094632Y-3358387D01*
X4094378Y-3354019D01*
X4096867Y-3337915D01*
X4097832Y-3319373D01*
X4096867Y-3300831D01*
X4094378Y-3284728D01*
X4094632Y-3280410D01*
X4096715Y-3276600D01*
X4100169Y-3273958D01*
X4104436Y-3273044D01*
X4125010Y-3273044D01*
X4125010Y-3145129D01*
X4120896Y-3146094D01*
X4103319Y-3152241D01*
X4086504Y-3160115D01*
X4070604Y-3169615D01*
X4055719Y-3180791D01*
X4051300Y-3184906D01*
X4048251Y-3186887D01*
X4044645Y-3187547D01*
X4041089Y-3186988D01*
X4037888Y-3185210D01*
X4025696Y-3175000D01*
X4010253Y-3164636D01*
X3993845Y-3155899D01*
X3976624Y-3148888D01*
X3958793Y-3143707D01*
X3940505Y-3140405D01*
X3921963Y-3138982D01*
X3903421Y-3139490D01*
X3884980Y-3141878D01*
X3866896Y-3146094D01*
X3847795Y-3152902D01*
X3843477Y-3153867D01*
X3183991Y-3153867D01*
X3177946Y-3152648D01*
X3160318Y-3149854D01*
X3142538Y-3148888D01*
X3124708Y-3149854D01*
X3107080Y-3152648D01*
X3089808Y-3157220D01*
X3073146Y-3163620D01*
X3057245Y-3171748D01*
X3042310Y-3181502D01*
X3028442Y-3192729D01*
X3015792Y-3205276D01*
X3004566Y-3219196D01*
X2994863Y-3234131D01*
X2986735Y-3250031D01*
X2980385Y-3266694D01*
X2979369Y-3270402D01*
X2977489Y-3274060D01*
X2974289Y-3276752D01*
X2970326Y-3277870D01*
X2966212Y-3277311D01*
X2962656Y-3275228D01*
X2960268Y-3271824D01*
X2959404Y-3267710D01*
X2959404Y-2231898D01*
X2960166Y-2228037D01*
X2962402Y-2224684D01*
X3024835Y-2162251D01*
X3028137Y-2160066D01*
X3031998Y-2159254D01*
X4094987Y-2159254D01*
X4103827Y-2159000D01*
X4112463Y-2158339D01*
X4121048Y-2157272D01*
X4129532Y-2155698D01*
X4137964Y-2153615D01*
X4146296Y-2151176D01*
X4154474Y-2148281D01*
X4162450Y-2144979D01*
X4170273Y-2141220D01*
X4177893Y-2137105D01*
X4185259Y-2132533D01*
X4192422Y-2127656D01*
X4199280Y-2122373D01*
X4205884Y-2116734D01*
X4212285Y-2110740D01*
X4445406Y-1877568D01*
X4449368Y-1875078D01*
X4464304Y-1870100D01*
X4481525Y-1862328D01*
X4497882Y-1852930D01*
X4513224Y-1841855D01*
X4515459Y-1839874D01*
X4518456Y-1838045D01*
X4521911Y-1837334D01*
X4525416Y-1837842D01*
X4528515Y-1839518D01*
X4538573Y-1847596D01*
X4554423Y-1857857D01*
X4571238Y-1866392D01*
X4588814Y-1873351D01*
X4598314Y-1875993D01*
X4598314Y-1744573D01*
X4590440Y-1744573D01*
X4586833Y-1743964D01*
X4583684Y-1742033D01*
X4581448Y-1739138D01*
X4580331Y-1735632D01*
X4580737Y-1731365D01*
X4583582Y-1712671D01*
X4584496Y-1693773D01*
X4583582Y-1674926D01*
X4580585Y-1655622D01*
X4580331Y-1651965D01*
X4581448Y-1648460D01*
X4583684Y-1645564D01*
X4586833Y-1643634D01*
X4590440Y-1642973D01*
X4598314Y-1642973D01*
X4598314Y-1511554D01*
X4588814Y-1514246D01*
X4571238Y-1521206D01*
X4554423Y-1529740D01*
X4538573Y-1540002D01*
X4528515Y-1548079D01*
X4525416Y-1549704D01*
X4521911Y-1550212D01*
X4518456Y-1549552D01*
X4515459Y-1547672D01*
X4513224Y-1545742D01*
X4497882Y-1534668D01*
X4481525Y-1525219D01*
X4464304Y-1517446D01*
X4446422Y-1511503D01*
X4427982Y-1507236D01*
X4409287Y-1504899D01*
X4390390Y-1504442D01*
X4371543Y-1505864D01*
X4352950Y-1509115D01*
X4334814Y-1514246D01*
X4317238Y-1521206D01*
X4300423Y-1529740D01*
X4284573Y-1540002D01*
X4274515Y-1548079D01*
X4271416Y-1549704D01*
X4267911Y-1550212D01*
X4264456Y-1549552D01*
X4261459Y-1547672D01*
X4259224Y-1545742D01*
X4243882Y-1534668D01*
X4227525Y-1525219D01*
X4210304Y-1517446D01*
X4195368Y-1512519D01*
X4191406Y-1510030D01*
X4029659Y-1348282D01*
X4023258Y-1342186D01*
X4016654Y-1336598D01*
X4009796Y-1331315D01*
X4002633Y-1326388D01*
X3995267Y-1321917D01*
X3987647Y-1317701D01*
X3979824Y-1313992D01*
X3971848Y-1310690D01*
X3963670Y-1307846D01*
X3955338Y-1305356D01*
X3946906Y-1303324D01*
X3938422Y-1301699D01*
X3929837Y-1300581D01*
X3921201Y-1299972D01*
X3912362Y-1299667D01*
X1633118Y-1299667D01*
X1629206Y-1298956D01*
X1625904Y-1296670D01*
X1623720Y-1293418D01*
X1622958Y-1289507D01*
X1623720Y-1285595D01*
X1625904Y-1282395D01*
X1730095Y-1178153D01*
X1732280Y-1176528D01*
X1734820Y-1175512D01*
X1753412Y-1170838D01*
X1771954Y-1164234D01*
X1789734Y-1155852D01*
X1806193Y-1145895D01*
X1808734Y-1144828D01*
X1811426Y-1144473D01*
X2229002Y-1144473D01*
X2231694Y-1144828D01*
X2234234Y-1145895D01*
X2250694Y-1155852D01*
X2268474Y-1164234D01*
X2287016Y-1170838D01*
X2306116Y-1175613D01*
X2325573Y-1178509D01*
X2345232Y-1179474D01*
X2364841Y-1178509D01*
X2384298Y-1175613D01*
X2403398Y-1170838D01*
X2416708Y-1166114D01*
X2420112Y-1165555D01*
X2707436Y-1165555D01*
X2713482Y-1166723D01*
X2731109Y-1169568D01*
X2748940Y-1170533D01*
X2766771Y-1169568D01*
X2784398Y-1166723D01*
X2801620Y-1162151D01*
X2818282Y-1155801D01*
X2834182Y-1147622D01*
X2849168Y-1137920D01*
X2863037Y-1126693D01*
X2875635Y-1114044D01*
X2886862Y-1100226D01*
X2896616Y-1085240D01*
X2904693Y-1069390D01*
X2911094Y-1052728D01*
X2915716Y-1035405D01*
X2918510Y-1017778D01*
X2919425Y-1000048D01*
X2918510Y-982167D01*
X2915716Y-964539D01*
X2911094Y-947318D01*
X2904693Y-930656D01*
X2896616Y-914704D01*
X2886862Y-899769D01*
X2875635Y-885901D01*
X2863037Y-873252D01*
X2849168Y-862025D01*
X2834182Y-852322D01*
X2818282Y-844245D01*
X2801620Y-837895D01*
X2784398Y-833221D01*
X2766771Y-830478D01*
X2748940Y-829513D01*
X2731109Y-830478D01*
X2713482Y-833221D01*
X2707436Y-834491D01*
X2487879Y-834491D01*
X2484221Y-833780D01*
X2481072Y-831850D01*
X2472385Y-823976D01*
X2456586Y-812241D01*
X2439720Y-802182D01*
X2421940Y-793750D01*
X2403398Y-787146D01*
X2384298Y-782320D01*
X2364841Y-779424D01*
X2345232Y-778459D01*
X2325573Y-779424D01*
X2306116Y-782320D01*
X2287016Y-787146D01*
X2268474Y-793750D01*
X2250694Y-802182D01*
X2234234Y-812088D01*
X2231694Y-813104D01*
X2229002Y-813511D01*
X1811426Y-813511D01*
X1808734Y-813104D01*
X1806193Y-812088D01*
X1789734Y-802182D01*
X1771954Y-793750D01*
X1753412Y-787146D01*
X1734312Y-782320D01*
X1714855Y-779424D01*
X1695246Y-778459D01*
X1675587Y-779424D01*
X1656130Y-782320D01*
X1637030Y-787146D01*
X1618488Y-793750D01*
X1600708Y-802182D01*
X1583842Y-812241D01*
X1568043Y-823976D01*
X1553464Y-837184D01*
X1540256Y-851763D01*
X1528521Y-867613D01*
X1518412Y-884478D01*
X1509979Y-902309D01*
X1503375Y-920750D01*
X1498701Y-939444D01*
X1497685Y-941984D01*
X1496009Y-944118D01*
X1346657Y-1093470D01*
X1343355Y-1095756D01*
X1339443Y-1096467D01*
X1256436Y-1096467D01*
X1252423Y-1095705D01*
X1249019Y-1093317D01*
X1246886Y-1089761D01*
X1246276Y-1085646D01*
X1247394Y-1081684D01*
X1253693Y-1069390D01*
X1260094Y-1052728D01*
X1264716Y-1035405D01*
X1267510Y-1017778D01*
X1268425Y-1000048D01*
X1267510Y-982167D01*
X1264716Y-964539D01*
X1260094Y-947318D01*
X1253693Y-930656D01*
X1245616Y-914704D01*
X1235862Y-899769D01*
X1224635Y-885901D01*
X1212037Y-873252D01*
X1198168Y-862025D01*
X1183182Y-852322D01*
X1167282Y-844245D01*
X1150620Y-837895D01*
X1133398Y-833221D01*
X1115771Y-830478D01*
X1097940Y-829513D01*
X1080109Y-830478D01*
X1062482Y-833221D01*
X1056436Y-834491D01*
X847191Y-834491D01*
X843991Y-833983D01*
X841095Y-832510D01*
X830986Y-824941D01*
X814120Y-814882D01*
X796340Y-806450D01*
X777798Y-799846D01*
X758698Y-795020D01*
X739241Y-792124D01*
X719632Y-791159D01*
X699973Y-792124D01*
X680516Y-795020D01*
X661416Y-799846D01*
X642874Y-806450D01*
X625094Y-814882D01*
X608634Y-824788D01*
X606094Y-825804D01*
X603402Y-826211D01*
X185826Y-826211D01*
X183134Y-825804D01*
X180594Y-824788D01*
X164134Y-814882D01*
X146354Y-806450D01*
X127812Y-799846D01*
X108712Y-795020D01*
X89255Y-792124D01*
X69646Y-791159D01*
X49987Y-792124D01*
X30530Y-795020D01*
X11430Y-799846D01*
X-7112Y-806450D01*
X-24892Y-814882D01*
X-41757Y-824941D01*
X-57556Y-836676D01*
X-72136Y-849884D01*
X-85344Y-864463D01*
X-97078Y-880313D01*
X-107187Y-897178D01*
X-115620Y-915009D01*
X-122224Y-933450D01*
X-126898Y-952144D01*
X-127914Y-954684D01*
X-129590Y-956818D01*
X-296570Y-1123797D01*
X-299720Y-1125931D01*
X-303479Y-1126744D01*
X-307289Y-1126134D01*
X-310591Y-1124153D01*
X-550570Y-905764D01*
X-552246Y-903782D01*
X-554837Y-899769D01*
X-566064Y-885901D01*
X-578662Y-873252D01*
X-592531Y-862025D01*
X-607517Y-852322D01*
X-623417Y-844245D01*
X-640080Y-837895D01*
X-657301Y-833221D01*
X-674928Y-830478D01*
X-692759Y-829513D01*
X-710590Y-830478D01*
X-728218Y-833221D01*
X-734263Y-834491D01*
X-936802Y-834491D01*
X-939546Y-834085D01*
X-942035Y-833069D01*
X-951179Y-827582D01*
X-968959Y-819150D01*
X-987501Y-812546D01*
X-1006602Y-807720D01*
X-1026058Y-804824D01*
X-1045667Y-803859D01*
X-1065326Y-804824D01*
X-1084783Y-807720D01*
X-1103884Y-812546D01*
X-1122426Y-819150D01*
X-1140206Y-827582D01*
X-1156665Y-837437D01*
X-1159205Y-838504D01*
X-1161897Y-838911D01*
X-1579473Y-838911D01*
X-1582166Y-838504D01*
X-1584706Y-837437D01*
X-1601165Y-827582D01*
X-1618945Y-819150D01*
X-1637487Y-812546D01*
X-1656588Y-807720D01*
X-1676044Y-804824D01*
X-1695653Y-803859D01*
X-1715312Y-804824D01*
X-1734769Y-807720D01*
X-1753870Y-812546D01*
X-1772412Y-819150D01*
X-1790192Y-827582D01*
X-1807057Y-837641D01*
X-1822856Y-849376D01*
X-1837436Y-862584D01*
X-1850643Y-877163D01*
X-1862378Y-893013D01*
X-1872488Y-909878D01*
X-1880920Y-927709D01*
X-1887524Y-946150D01*
X-1892300Y-965301D01*
X-1895195Y-984707D01*
X-1896160Y-1004417D01*
X-1895195Y-1024077D01*
X-1892300Y-1043533D01*
X-1887524Y-1062634D01*
X-1880920Y-1081125D01*
X-1872488Y-1098854D01*
X-1862378Y-1115822D01*
X-1850643Y-1131570D01*
X-1837436Y-1146149D01*
X-1822856Y-1159357D01*
X-1807057Y-1171092D01*
X-1790192Y-1181252D01*
X-1772412Y-1189634D01*
X-1753870Y-1196238D01*
X-1734769Y-1201013D01*
X-1715312Y-1203909D01*
X-1695653Y-1204874D01*
X-1676044Y-1203909D01*
X-1656588Y-1201013D01*
X-1637487Y-1196238D01*
X-1618945Y-1189634D01*
X-1601165Y-1181252D01*
X-1584706Y-1171295D01*
X-1582166Y-1170228D01*
X-1579473Y-1169873D01*
X-1161897Y-1169873D01*
X-1159205Y-1170228D01*
X-1156665Y-1171295D01*
X-1140206Y-1181252D01*
X-1122426Y-1189634D01*
X-1103884Y-1196238D01*
X-1084783Y-1201013D01*
X-1065326Y-1203909D01*
X-1045667Y-1204874D01*
X-1026058Y-1203909D01*
X-1006602Y-1201013D01*
X-987501Y-1196238D01*
X-968959Y-1189634D01*
X-951179Y-1181252D01*
X-934313Y-1171092D01*
X-929436Y-1167536D01*
X-926592Y-1166063D01*
X-923391Y-1165555D01*
X-760882Y-1165555D01*
X-757174Y-1166215D01*
X-754024Y-1168146D01*
X-582168Y-1324508D01*
X-579729Y-1327912D01*
X-578866Y-1332026D01*
X-578866Y-1536446D01*
X-579628Y-1540306D01*
X-581863Y-1543558D01*
X-585114Y-1545742D01*
X-589026Y-1546606D01*
X-592937Y-1545742D01*
X-596188Y-1543558D01*
X-816914Y-1322882D01*
X-823315Y-1316786D01*
X-829919Y-1311198D01*
X-836777Y-1305915D01*
X-843940Y-1300988D01*
X-851306Y-1296517D01*
X-858926Y-1292301D01*
X-866749Y-1288592D01*
X-874725Y-1285290D01*
X-882903Y-1282446D01*
X-891235Y-1279956D01*
X-899668Y-1277924D01*
X-908151Y-1276299D01*
X-916736Y-1275181D01*
X-925372Y-1274572D01*
X-934212Y-1274267D01*
X-1755139Y-1274267D01*
X-1759000Y-1273556D01*
X-1762302Y-1271270D01*
X-2121052Y-912571D01*
X-2122424Y-910894D01*
X-2129637Y-899769D01*
X-2140864Y-885901D01*
X-2153462Y-873252D01*
X-2167331Y-862025D01*
X-2182317Y-852322D01*
X-2198217Y-844245D01*
X-2214880Y-837895D01*
X-2232101Y-833221D01*
X-2249728Y-830478D01*
X-2267559Y-829513D01*
X-2285390Y-830478D01*
X-2303018Y-833221D01*
X-2309063Y-834491D01*
X-2537002Y-834491D01*
X-2539746Y-834085D01*
X-2542235Y-833069D01*
X-2551379Y-827582D01*
X-2569159Y-819150D01*
X-2587701Y-812546D01*
X-2606802Y-807720D01*
X-2626258Y-804824D01*
X-2645867Y-803859D01*
X-2665526Y-804824D01*
X-2684983Y-807720D01*
X-2704084Y-812546D01*
X-2722626Y-819150D01*
X-2740406Y-827582D01*
X-2756865Y-837437D01*
X-2759405Y-838504D01*
X-2762097Y-838911D01*
X-3179673Y-838911D01*
X-3182366Y-838504D01*
X-3184906Y-837437D01*
X-3201365Y-827582D01*
X-3219145Y-819150D01*
X-3237687Y-812546D01*
X-3256788Y-807720D01*
X-3276244Y-804824D01*
X-3295853Y-803859D01*
X-3315512Y-804824D01*
X-3334969Y-807720D01*
X-3354070Y-812546D01*
X-3372612Y-819150D01*
X-3390392Y-827582D01*
X-3407257Y-837641D01*
X-3423056Y-849376D01*
X-3437636Y-862584D01*
X-3450844Y-877163D01*
X-3462578Y-893013D01*
X-3472687Y-909878D01*
X-3481120Y-927709D01*
X-3487724Y-946150D01*
X-3492500Y-965301D01*
X-3495395Y-984707D01*
X-3496360Y-1004417D01*
X-3495395Y-1024077D01*
X-3492500Y-1043533D01*
X-3487724Y-1062634D01*
X-3481120Y-1081125D01*
X-3472687Y-1098854D01*
X-3462578Y-1115822D01*
X-3450844Y-1131570D01*
X-3437636Y-1146149D01*
X-3423056Y-1159357D01*
X-3407257Y-1171092D01*
X-3390392Y-1181252D01*
X-3372612Y-1189634D01*
X-3354070Y-1196238D01*
X-3334969Y-1201013D01*
X-3315512Y-1203909D01*
X-3295853Y-1204874D01*
X-3276244Y-1203909D01*
X-3256788Y-1201013D01*
X-3237687Y-1196238D01*
X-3219145Y-1189634D01*
X-3201365Y-1181252D01*
X-3184906Y-1171295D01*
X-3182366Y-1170228D01*
X-3179673Y-1169873D01*
X-2762097Y-1169873D01*
X-2759405Y-1170228D01*
X-2756865Y-1171295D01*
X-2740406Y-1181252D01*
X-2722626Y-1189634D01*
X-2704084Y-1196238D01*
X-2684983Y-1201013D01*
X-2665526Y-1203909D01*
X-2645867Y-1204874D01*
X-2626258Y-1203909D01*
X-2606802Y-1201013D01*
X-2587701Y-1196238D01*
X-2569159Y-1189634D01*
X-2551379Y-1181252D01*
X-2534513Y-1171092D01*
X-2529636Y-1167536D01*
X-2526792Y-1166063D01*
X-2523591Y-1165555D01*
X-2340457Y-1165555D01*
X-2336546Y-1166266D01*
X-2333244Y-1168501D01*
X-1945030Y-1556715D01*
X-1938629Y-1562811D01*
X-1932025Y-1568399D01*
X-1925167Y-1573682D01*
X-1918004Y-1578559D01*
X-1910638Y-1583080D01*
X-1903018Y-1587246D01*
X-1895195Y-1591005D01*
X-1887220Y-1594307D01*
X-1879041Y-1597202D01*
X-1870710Y-1599641D01*
X-1862277Y-1601673D01*
X-1853793Y-1603298D01*
X-1845208Y-1604365D01*
X-1836572Y-1605026D01*
X-1827733Y-1605330D01*
X-1006805Y-1605330D01*
X-1002944Y-1606042D01*
X-999642Y-1608277D01*
X-797763Y-1810156D01*
X-795528Y-1813458D01*
X-794766Y-1817319D01*
X-794766Y-2667711D01*
X-795528Y-2671622D01*
X-797763Y-2674924D01*
X-801014Y-2677109D01*
X-804926Y-2677922D01*
X-808837Y-2677109D01*
X-812088Y-2674924D01*
X-1330655Y-2156358D01*
X-1337056Y-2150313D01*
X-1343609Y-2144674D01*
X-1350518Y-2139391D01*
X-1357630Y-2134463D01*
X-1365046Y-2129942D01*
X-1372666Y-2125878D01*
X-1380490Y-2122119D01*
X-1388465Y-2118766D01*
X-1396644Y-2115870D01*
X-1404975Y-2113432D01*
X-1413357Y-2111400D01*
X-1421892Y-2109876D01*
X-1430477Y-2108657D01*
X-1439113Y-2107996D01*
X-1447901Y-2107742D01*
X-1841347Y-2107742D01*
X-1850136Y-2107996D01*
X-1858772Y-2108657D01*
X-1867357Y-2109876D01*
X-1875891Y-2111400D01*
X-1884324Y-2113432D01*
X-1892655Y-2115870D01*
X-1900783Y-2118766D01*
X-1908810Y-2122119D01*
X-1916633Y-2125878D01*
X-1924253Y-2129942D01*
X-1931619Y-2134463D01*
X-1938782Y-2139391D01*
X-1945639Y-2144674D01*
X-1952243Y-2150313D01*
X-1958593Y-2156358D01*
X-2235301Y-2433116D01*
X-2241397Y-2439466D01*
X-2246985Y-2446020D01*
X-2252268Y-2452878D01*
X-2257196Y-2460091D01*
X-2261717Y-2467457D01*
X-2265832Y-2475026D01*
X-2269591Y-2482850D01*
X-2272893Y-2490876D01*
X-2275789Y-2499055D01*
X-2278227Y-2507386D01*
X-2280259Y-2515819D01*
X-2281834Y-2524302D01*
X-2283002Y-2532888D01*
X-2283663Y-2541574D01*
X-2283917Y-2550363D01*
X-2283917Y-2916428D01*
X-2284679Y-2920288D01*
X-2286863Y-2923641D01*
X-2358136Y-2994914D01*
X-2361438Y-2997098D01*
X-2365349Y-2997911D01*
X-2542387Y-2997911D01*
X-2545080Y-2997504D01*
X-2547620Y-2996438D01*
X-2564079Y-2986582D01*
X-2581859Y-2978150D01*
X-2600401Y-2971546D01*
X-2619502Y-2966720D01*
X-2638958Y-2963824D01*
X-2658567Y-2962859D01*
X-2678226Y-2963824D01*
X-2697683Y-2966720D01*
X-2716784Y-2971546D01*
X-2735326Y-2978150D01*
X-2753106Y-2986582D01*
X-2769565Y-2996438D01*
X-2772105Y-2997504D01*
X-2774797Y-2997911D01*
X-3192373Y-2997911D01*
X-3195066Y-2997504D01*
X-3197606Y-2996438D01*
X-3214065Y-2986582D01*
X-3231845Y-2978150D01*
X-3250387Y-2971546D01*
X-3269488Y-2966720D01*
X-3288944Y-2963824D01*
X-3308553Y-2962859D01*
X-3328212Y-2963824D01*
X-3347669Y-2966720D01*
X-3366770Y-2971546D01*
X-3385312Y-2978150D01*
X-3403092Y-2986582D01*
X-3419957Y-2996641D01*
X-3435756Y-3008376D01*
X-3450336Y-3021584D01*
X-3463544Y-3036163D01*
X-3475278Y-3052013D01*
X-3485387Y-3068878D01*
X-3493820Y-3086709D01*
X-3500424Y-3105150D01*
X-3505200Y-3124301D01*
X-3508095Y-3143707D01*
X-3509060Y-3163417D01*
X-3508095Y-3183026D01*
X-3505200Y-3202533D01*
X-3500424Y-3221634D01*
X-3493820Y-3240125D01*
X-3485387Y-3257854D01*
X-3475278Y-3274822D01*
X-3473297Y-3277463D01*
X-3471824Y-3280308D01*
X-3471316Y-3283559D01*
X-3471316Y-3747770D01*
X-3472535Y-3753815D01*
X-3475329Y-3771442D01*
X-3476294Y-3789273D01*
X-3475329Y-3807155D01*
X-3472535Y-3824782D01*
X-3467912Y-3841953D01*
X-3461562Y-3858615D01*
X-3453434Y-3874566D01*
X-3443732Y-3889501D01*
X-3432505Y-3903421D01*
X-3419856Y-3915968D01*
X-3405987Y-3927195D01*
X-3391052Y-3936949D01*
X-3375151Y-3945026D01*
X-3358489Y-3951427D01*
X-3341217Y-3956050D01*
X-3323590Y-3958844D01*
X-3305759Y-3959758D01*
X-3287979Y-3958844D01*
X-3270351Y-3956050D01*
X-3253079Y-3951427D01*
X-3236417Y-3945026D01*
X-3220516Y-3936949D01*
X-3205581Y-3927195D01*
X-3191713Y-3915968D01*
X-3179064Y-3903421D01*
X-3167837Y-3889501D01*
X-3158134Y-3874566D01*
X-3150006Y-3858615D01*
X-3143656Y-3841953D01*
X-3139033Y-3824782D01*
X-3136239Y-3807155D01*
X-3135274Y-3789273D01*
X-3136239Y-3771442D01*
X-3139033Y-3753815D01*
X-3140252Y-3747770D01*
X-3140252Y-3339033D01*
X-3139490Y-3335121D01*
X-3137306Y-3331921D01*
X-3134004Y-3329635D01*
X-3130092Y-3328873D01*
X-2774797Y-3328873D01*
X-2772105Y-3329228D01*
X-2769565Y-3330295D01*
X-2753106Y-3340252D01*
X-2735326Y-3348634D01*
X-2716784Y-3355238D01*
X-2697683Y-3360013D01*
X-2678226Y-3362909D01*
X-2658567Y-3363874D01*
X-2638958Y-3362909D01*
X-2619502Y-3360013D01*
X-2600401Y-3355238D01*
X-2581859Y-3348634D01*
X-2564079Y-3340252D01*
X-2547620Y-3330295D01*
X-2545080Y-3329228D01*
X-2542387Y-3328873D01*
X-2292705Y-3328873D01*
X-2283917Y-3328619D01*
X-2275281Y-3328009D01*
X-2266696Y-3326841D01*
X-2258161Y-3325266D01*
X-2249728Y-3323234D01*
X-2241448Y-3320796D01*
X-2233269Y-3317900D01*
X-2225243Y-3314547D01*
X-2217420Y-3310890D01*
X-2209850Y-3306673D01*
X-2202434Y-3302203D01*
X-2195322Y-3297326D01*
X-2188413Y-3291992D01*
X-2181809Y-3286353D01*
X-2175459Y-3280308D01*
X-2023059Y-3127908D01*
X-2020163Y-3125876D01*
X-2016760Y-3124962D01*
X-2013204Y-3125317D01*
X-2010003Y-3126790D01*
X-2006142Y-3129483D01*
X-1990750Y-3138068D01*
X-1974545Y-3144926D01*
X-1957222Y-3150006D01*
X-1957222Y-3027934D01*
X-1957070Y-3025952D01*
X-1954936Y-3015030D01*
X-1953818Y-3006750D01*
X-1953107Y-2997860D01*
X-1952853Y-2989072D01*
X-1952853Y-2622956D01*
X-1952091Y-2619044D01*
X-1949907Y-2615742D01*
X-1775917Y-2441752D01*
X-1772615Y-2439619D01*
X-1768703Y-2438806D01*
X-1520545Y-2438806D01*
X-1516684Y-2439619D01*
X-1513382Y-2441752D01*
X-1094638Y-2860446D01*
X-1092454Y-2863748D01*
X-1091692Y-2867660D01*
X-1091692Y-3195167D01*
X-1092708Y-3199638D01*
X-1095248Y-3204718D01*
X-1099464Y-3217214D01*
X-1102004Y-3230016D01*
X-1102918Y-3243529D01*
X-1102918Y-3395218D01*
X-1102004Y-3408730D01*
X-1099464Y-3421532D01*
X-1095248Y-3434029D01*
X-1089406Y-3445814D01*
X-1082141Y-3456736D01*
X-1075080Y-3464814D01*
X-1072946Y-3468725D01*
X-1072692Y-3473196D01*
X-1074420Y-3477310D01*
X-1084224Y-3494328D01*
X-1091539Y-3511042D01*
X-1097076Y-3528364D01*
X-1100785Y-3546144D01*
X-1102664Y-3564229D01*
X-1102664Y-3582517D01*
X-1100785Y-3600602D01*
X-1097076Y-3618331D01*
X-1091539Y-3635705D01*
X-1084224Y-3652418D01*
X-1075283Y-3668166D01*
X-1064768Y-3683000D01*
X-1055420Y-3693617D01*
X-1053541Y-3696817D01*
X-1052880Y-3700373D01*
X-1053541Y-3703929D01*
X-1055420Y-3707129D01*
X-1064768Y-3717696D01*
X-1075283Y-3732580D01*
X-1084224Y-3748328D01*
X-1091539Y-3765042D01*
X-1097076Y-3782364D01*
X-1100785Y-3800144D01*
X-1102664Y-3818229D01*
X-1102664Y-3836517D01*
X-1100785Y-3854602D01*
X-1097076Y-3872331D01*
X-1091539Y-3889705D01*
X-1084224Y-3906418D01*
X-1075283Y-3922166D01*
X-1064768Y-3937000D01*
X-1055420Y-3947617D01*
X-1053541Y-3950817D01*
X-1052880Y-3954373D01*
X-1053541Y-3957929D01*
X-1055420Y-3961129D01*
X-1064768Y-3971696D01*
X-1075283Y-3986580D01*
X-1084224Y-4002328D01*
X-1091539Y-4019042D01*
X-1097076Y-4036364D01*
X-1100785Y-4054144D01*
X-1102664Y-4072229D01*
X-1102664Y-4090517D01*
X-1100785Y-4108602D01*
X-1097076Y-4126331D01*
X-1091539Y-4143705D01*
X-1084224Y-4160418D01*
X-1075283Y-4176166D01*
X-1064768Y-4191000D01*
X-1055420Y-4201617D01*
X-1053541Y-4204817D01*
X-1052880Y-4208373D01*
X-1053541Y-4211929D01*
X-1055420Y-4215130D01*
X-1064768Y-4225696D01*
X-1075283Y-4240580D01*
X-1084224Y-4256328D01*
X-1091539Y-4273042D01*
X-1097076Y-4290364D01*
X-1100785Y-4308144D01*
X-1102664Y-4326229D01*
X-1102664Y-4344517D01*
X-1100785Y-4362602D01*
X-1097076Y-4380331D01*
X-1091539Y-4397705D01*
X-1084224Y-4414418D01*
X-1075283Y-4430166D01*
X-1064768Y-4445000D01*
X-1055420Y-4455617D01*
X-1053541Y-4458817D01*
X-1052880Y-4462373D01*
X-1053541Y-4465929D01*
X-1055420Y-4469130D01*
X-1064768Y-4479696D01*
X-1075283Y-4494580D01*
X-1084224Y-4510328D01*
X-1091539Y-4527042D01*
X-1097076Y-4544364D01*
X-1100785Y-4562144D01*
X-1102664Y-4580229D01*
X-1102664Y-4598517D01*
X-1100785Y-4616602D01*
X-1097076Y-4634331D01*
X-1091539Y-4651705D01*
X-1084224Y-4668418D01*
X-1075283Y-4684166D01*
X-1064768Y-4699000D01*
X-1055420Y-4709617D01*
X-1053541Y-4712817D01*
X-1052880Y-4716373D01*
X-1053541Y-4719929D01*
X-1055420Y-4723130D01*
X-1064768Y-4733696D01*
X-1075283Y-4748580D01*
X-1084224Y-4764328D01*
X-1091539Y-4781042D01*
X-1097076Y-4798364D01*
X-1100785Y-4816144D01*
X-1102664Y-4834229D01*
X-1102664Y-4852517D01*
X-1100785Y-4870602D01*
X-1097076Y-4888331D01*
X-1091539Y-4905705D01*
X-1084224Y-4922418D01*
X-1075283Y-4938166D01*
X-1064768Y-4953000D01*
X-1055420Y-4963617D01*
X-1053541Y-4966817D01*
X-1052880Y-4970373D01*
X-1053541Y-4973929D01*
X-1055420Y-4977130D01*
X-1064768Y-4987696D01*
X-1075283Y-5002580D01*
X-1084224Y-5018328D01*
X-1091539Y-5035042D01*
X-1097076Y-5052364D01*
X-1100785Y-5070144D01*
X-1102664Y-5088229D01*
X-1102664Y-5106517D01*
X-1100785Y-5124602D01*
X-1097076Y-5142331D01*
X-1091539Y-5159705D01*
X-1084224Y-5176418D01*
X-1075283Y-5192166D01*
X-1064768Y-5207000D01*
X-1055420Y-5217617D01*
X-1053541Y-5220817D01*
X-1052880Y-5224373D01*
X-1053541Y-5227929D01*
X-1055420Y-5231130D01*
X-1064768Y-5241696D01*
X-1075283Y-5256580D01*
X-1084224Y-5272328D01*
X-1091539Y-5289042D01*
X-1097076Y-5306364D01*
X-1100785Y-5324144D01*
X-1102664Y-5342229D01*
X-1102664Y-5360517D01*
X-1100785Y-5378602D01*
X-1097076Y-5396331D01*
X-1091539Y-5413705D01*
X-1084224Y-5430418D01*
X-1075283Y-5446166D01*
X-1064768Y-5461000D01*
X-1055420Y-5471617D01*
X-1053541Y-5474817D01*
X-1052880Y-5478373D01*
X-1053541Y-5481929D01*
X-1055420Y-5485130D01*
X-1064768Y-5495696D01*
X-1075283Y-5510580D01*
X-1084224Y-5526328D01*
X-1091539Y-5543042D01*
X-1097076Y-5560364D01*
X-1100785Y-5578144D01*
X-1102664Y-5596229D01*
X-1102664Y-5614517D01*
X-1100785Y-5632602D01*
X-1097076Y-5650331D01*
X-1091539Y-5667705D01*
X-1084224Y-5684418D01*
X-1075283Y-5700166D01*
X-1064768Y-5715000D01*
X-1055420Y-5725617D01*
X-1053541Y-5728817D01*
X-1052880Y-5732373D01*
X-1053541Y-5735929D01*
X-1055420Y-5739130D01*
X-1064768Y-5749696D01*
X-1075283Y-5764580D01*
X-1084224Y-5780328D01*
X-1091539Y-5797042D01*
X-1097076Y-5814364D01*
X-1100785Y-5832144D01*
X-1102664Y-5850229D01*
X-1102664Y-5868517D01*
X-1100785Y-5886602D01*
X-1097076Y-5904331D01*
X-1091539Y-5921705D01*
X-1084224Y-5938418D01*
X-1075283Y-5954166D01*
X-1064768Y-5969000D01*
X-1055420Y-5979617D01*
X-1053541Y-5982817D01*
X-1052880Y-5986373D01*
X-1053541Y-5989929D01*
X-1055420Y-5993130D01*
X-1064768Y-6003696D01*
X-1075283Y-6018580D01*
X-1084224Y-6034328D01*
X-1091539Y-6051042D01*
X-1097076Y-6068364D01*
X-1100785Y-6086144D01*
X-1102664Y-6104229D01*
X-1102664Y-6122517D01*
X-1100785Y-6140602D01*
X-1097076Y-6158331D01*
X-1091539Y-6175705D01*
X-1084224Y-6192418D01*
X-1075283Y-6208166D01*
X-1064768Y-6223000D01*
X-1055420Y-6233617D01*
X-1053541Y-6236817D01*
X-1052880Y-6240373D01*
X-1053541Y-6243929D01*
X-1055420Y-6247130D01*
X-1064768Y-6257696D01*
X-1075283Y-6272580D01*
X-1084224Y-6288328D01*
X-1091539Y-6305042D01*
X-1097076Y-6322364D01*
X-1100785Y-6340144D01*
X-1102664Y-6358229D01*
X-1102664Y-6376517D01*
X-1100785Y-6394602D01*
X-1097076Y-6412331D01*
X-1091539Y-6429705D01*
X-1084224Y-6446418D01*
X-1075283Y-6462166D01*
X-1064768Y-6477000D01*
X-1055420Y-6487617D01*
X-1053541Y-6490817D01*
X-1052880Y-6494373D01*
X-1053541Y-6497929D01*
X-1055420Y-6501130D01*
X-1064768Y-6511696D01*
X-1075283Y-6526580D01*
X-1084224Y-6542328D01*
X-1091539Y-6559042D01*
X-1097076Y-6576364D01*
X-1100785Y-6594144D01*
X-1102664Y-6612229D01*
X-1102664Y-6630517D01*
X-1100785Y-6648602D01*
X-1097076Y-6666331D01*
X-1091539Y-6683705D01*
X-1084224Y-6700418D01*
X-1075283Y-6716166D01*
X-1064768Y-6731000D01*
X-1055420Y-6741617D01*
X-1053541Y-6744817D01*
X-1052880Y-6748373D01*
X-1053541Y-6751929D01*
X-1055420Y-6755130D01*
X-1064768Y-6765696D01*
X-1075283Y-6780530D01*
X-1084224Y-6796328D01*
X-1091539Y-6813042D01*
X-1097076Y-6830364D01*
X-1100785Y-6848144D01*
X-1102664Y-6866229D01*
X-1102664Y-6884517D01*
X-1100785Y-6902602D01*
X-1097076Y-6920331D01*
X-1091539Y-6937705D01*
X-1084224Y-6954418D01*
X-1075283Y-6970166D01*
X-1064768Y-6985000D01*
X-1052728Y-6998665D01*
X-1039368Y-7011060D01*
X-1024839Y-7021931D01*
X-1009243Y-7031329D01*
X-992784Y-7039000D01*
X-975563Y-7044994D01*
X-957884Y-7049211D01*
X-939850Y-7051548D01*
X-921664Y-7052056D01*
X-903528Y-7050633D01*
X-885596Y-7047331D01*
X-868171Y-7042302D01*
X-851306Y-7035444D01*
X-835253Y-7026808D01*
X-820166Y-7016699D01*
X-806196Y-7005015D01*
X-793496Y-6992061D01*
X-782167Y-6977786D01*
X-772414Y-6962394D01*
X-764286Y-6946138D01*
X-757885Y-6929069D01*
X-753262Y-6911492D01*
X-750417Y-6893509D01*
X-749503Y-6875373D01*
X-750417Y-6857238D01*
X-753262Y-6839203D01*
X-757885Y-6821627D01*
X-764286Y-6804609D01*
X-772414Y-6788353D01*
X-782167Y-6772960D01*
X-793496Y-6758686D01*
X-796645Y-6755434D01*
X-798779Y-6752234D01*
X-799541Y-6748373D01*
X-798779Y-6744512D01*
X-796645Y-6741261D01*
X-793496Y-6738061D01*
X-782167Y-6723786D01*
X-772414Y-6708394D01*
X-764286Y-6692138D01*
X-757885Y-6675069D01*
X-753262Y-6657492D01*
X-750417Y-6639509D01*
X-749503Y-6621373D01*
X-750417Y-6603238D01*
X-753262Y-6585203D01*
X-757885Y-6567627D01*
X-764286Y-6550609D01*
X-772414Y-6534353D01*
X-782167Y-6518960D01*
X-793496Y-6504685D01*
X-796645Y-6501434D01*
X-798779Y-6498234D01*
X-799541Y-6494373D01*
X-798779Y-6490512D01*
X-796645Y-6487261D01*
X-793496Y-6484061D01*
X-782167Y-6469786D01*
X-772414Y-6454394D01*
X-764286Y-6438138D01*
X-757885Y-6421069D01*
X-753262Y-6403492D01*
X-750417Y-6385509D01*
X-749503Y-6367373D01*
X-750417Y-6349238D01*
X-753262Y-6331204D01*
X-757885Y-6313627D01*
X-764286Y-6296609D01*
X-772414Y-6280353D01*
X-782167Y-6264960D01*
X-793496Y-6250686D01*
X-796645Y-6247434D01*
X-798779Y-6244234D01*
X-799541Y-6240373D01*
X-798779Y-6236512D01*
X-796645Y-6233261D01*
X-793496Y-6230061D01*
X-782167Y-6215786D01*
X-772414Y-6200394D01*
X-764286Y-6184138D01*
X-757885Y-6167069D01*
X-753262Y-6149492D01*
X-750417Y-6131509D01*
X-749503Y-6113373D01*
X-750417Y-6095238D01*
X-753262Y-6077204D01*
X-757885Y-6059627D01*
X-764286Y-6042609D01*
X-772414Y-6026353D01*
X-782167Y-6010960D01*
X-793496Y-5996686D01*
X-796645Y-5993434D01*
X-798779Y-5990234D01*
X-799541Y-5986373D01*
X-798779Y-5982512D01*
X-796645Y-5979261D01*
X-793496Y-5976061D01*
X-782167Y-5961786D01*
X-772414Y-5946394D01*
X-764286Y-5930138D01*
X-757885Y-5913069D01*
X-753262Y-5895492D01*
X-750417Y-5877509D01*
X-749503Y-5859373D01*
X-750417Y-5841238D01*
X-753262Y-5823204D01*
X-757885Y-5805627D01*
X-764286Y-5788609D01*
X-772414Y-5772353D01*
X-782167Y-5756960D01*
X-793496Y-5742686D01*
X-796645Y-5739434D01*
X-798779Y-5736234D01*
X-799541Y-5732373D01*
X-798779Y-5728512D01*
X-796645Y-5725261D01*
X-793496Y-5722061D01*
X-782167Y-5707786D01*
X-772414Y-5692394D01*
X-764286Y-5676138D01*
X-757885Y-5659069D01*
X-753262Y-5641492D01*
X-750417Y-5623509D01*
X-749503Y-5605373D01*
X-750417Y-5587238D01*
X-753262Y-5569204D01*
X-757885Y-5551627D01*
X-764286Y-5534609D01*
X-772414Y-5518353D01*
X-782167Y-5502960D01*
X-793496Y-5488686D01*
X-796645Y-5485434D01*
X-798779Y-5482234D01*
X-799541Y-5478373D01*
X-798779Y-5474512D01*
X-796645Y-5471261D01*
X-793496Y-5468061D01*
X-782167Y-5453786D01*
X-772414Y-5438394D01*
X-764286Y-5422138D01*
X-757885Y-5405069D01*
X-753262Y-5387492D01*
X-750417Y-5369509D01*
X-749503Y-5351373D01*
X-750417Y-5333238D01*
X-753262Y-5315204D01*
X-757885Y-5297627D01*
X-764286Y-5280609D01*
X-772414Y-5264353D01*
X-782167Y-5248960D01*
X-793496Y-5234686D01*
X-796645Y-5231434D01*
X-798779Y-5228234D01*
X-799541Y-5224373D01*
X-798779Y-5220512D01*
X-796645Y-5217261D01*
X-793496Y-5214061D01*
X-782167Y-5199786D01*
X-772414Y-5184394D01*
X-764286Y-5168138D01*
X-757885Y-5151069D01*
X-753262Y-5133492D01*
X-750417Y-5115509D01*
X-749503Y-5097373D01*
X-750417Y-5079238D01*
X-753262Y-5061204D01*
X-757885Y-5043627D01*
X-764286Y-5026609D01*
X-772414Y-5010353D01*
X-782167Y-4994960D01*
X-793496Y-4980686D01*
X-796645Y-4977434D01*
X-798779Y-4974234D01*
X-799541Y-4970373D01*
X-798779Y-4966512D01*
X-796645Y-4963261D01*
X-793496Y-4960061D01*
X-782167Y-4945786D01*
X-772414Y-4930394D01*
X-764286Y-4914138D01*
X-757885Y-4897069D01*
X-753262Y-4879492D01*
X-750417Y-4861509D01*
X-749503Y-4843373D01*
X-750417Y-4825238D01*
X-753262Y-4807204D01*
X-757885Y-4789627D01*
X-764286Y-4772609D01*
X-772414Y-4756353D01*
X-782167Y-4740960D01*
X-793496Y-4726686D01*
X-796645Y-4723434D01*
X-798779Y-4720234D01*
X-799541Y-4716373D01*
X-798779Y-4712512D01*
X-796645Y-4709261D01*
X-793496Y-4706061D01*
X-782167Y-4691786D01*
X-772414Y-4676394D01*
X-764286Y-4660138D01*
X-757885Y-4643069D01*
X-753262Y-4625492D01*
X-750417Y-4607509D01*
X-749503Y-4589373D01*
X-750417Y-4571238D01*
X-753262Y-4553204D01*
X-757885Y-4535627D01*
X-764286Y-4518609D01*
X-765810Y-4515612D01*
X-766826Y-4511649D01*
X-766267Y-4507636D01*
X-764082Y-4504080D01*
X-760730Y-4501794D01*
X-756716Y-4500930D01*
X-197612Y-4500930D01*
X-188823Y-4500676D01*
X-180187Y-4499965D01*
X-171602Y-4498898D01*
X-163068Y-4497273D01*
X-154635Y-4495241D01*
X-146304Y-4492802D01*
X-138176Y-4489907D01*
X-130149Y-4486656D01*
X-122326Y-4482846D01*
X-114706Y-4478731D01*
X-107340Y-4474210D01*
X-100177Y-4469282D01*
X-93319Y-4463999D01*
X-86715Y-4458411D01*
X-80365Y-4452315D01*
X605282Y-3766769D01*
X611327Y-3760368D01*
X616966Y-3753713D01*
X622249Y-3746855D01*
X627126Y-3739692D01*
X631647Y-3732326D01*
X635812Y-3724757D01*
X639521Y-3716934D01*
X642874Y-3708908D01*
X645769Y-3700779D01*
X648208Y-3692448D01*
X650240Y-3683965D01*
X651814Y-3675481D01*
X652932Y-3666896D01*
X653592Y-3658311D01*
X653846Y-3649472D01*
X653846Y-1537919D01*
X654608Y-1534058D01*
X656844Y-1530756D01*
X757123Y-1430477D01*
X760425Y-1428242D01*
X764286Y-1427530D01*
X1054862Y-1427530D01*
X1058722Y-1428242D01*
X1062024Y-1430477D01*
X1064209Y-1433779D01*
X1065022Y-1437690D01*
X1064209Y-1441602D01*
X1062024Y-1444802D01*
X841298Y-1665528D01*
X835253Y-1671929D01*
X829614Y-1678584D01*
X824331Y-1685442D01*
X819454Y-1692605D01*
X814933Y-1699971D01*
X810768Y-1707540D01*
X807059Y-1715363D01*
X803706Y-1723389D01*
X800862Y-1731518D01*
X798372Y-1739849D01*
X796340Y-1748332D01*
X794766Y-1756765D01*
X793648Y-1765401D01*
X792988Y-1773986D01*
X792734Y-1782825D01*
X792734Y-3370072D01*
X792988Y-3378911D01*
X793648Y-3387496D01*
X794766Y-3396081D01*
X796340Y-3404565D01*
X798372Y-3413048D01*
X800862Y-3421379D01*
X803706Y-3429508D01*
X807059Y-3437534D01*
X810768Y-3445357D01*
X814933Y-3452926D01*
X819454Y-3460292D01*
X824331Y-3467455D01*
X829614Y-3474313D01*
X835253Y-3480968D01*
X841298Y-3487369D01*
X1044346Y-3690315D01*
X1050696Y-3696411D01*
X1057300Y-3701999D01*
X1064158Y-3707282D01*
X1071321Y-3712210D01*
X1078687Y-3716731D01*
X1086307Y-3720846D01*
X1094130Y-3724656D01*
X1102156Y-3727907D01*
X1110284Y-3730802D01*
X1118616Y-3733241D01*
X1127048Y-3735273D01*
X1135583Y-3736898D01*
X1144168Y-3737965D01*
X1152804Y-3738676D01*
X1161592Y-3738930D01*
X1444345Y-3738930D01*
X1448257Y-3739692D01*
X1451610Y-3741928D01*
X1453794Y-3745280D01*
X1454505Y-3749192D01*
X1453642Y-3753104D01*
X1448460Y-3765042D01*
X1442923Y-3782364D01*
X1439214Y-3800144D01*
X1437335Y-3818229D01*
X1437335Y-3836517D01*
X1439214Y-3854602D01*
X1442923Y-3872331D01*
X1448460Y-3889705D01*
X1455775Y-3906418D01*
X1464716Y-3922166D01*
X1475232Y-3937000D01*
X1484579Y-3947617D01*
X1486458Y-3950817D01*
X1487119Y-3954373D01*
X1486458Y-3957929D01*
X1484579Y-3961129D01*
X1475232Y-3971696D01*
X1464716Y-3986580D01*
X1455775Y-4002328D01*
X1448460Y-4019042D01*
X1442923Y-4036364D01*
X1439214Y-4054144D01*
X1437335Y-4072229D01*
X1437335Y-4090517D01*
X1439214Y-4108602D01*
X1442923Y-4126331D01*
X1448460Y-4143705D01*
X1455775Y-4160418D01*
X1464716Y-4176166D01*
X1475232Y-4191000D01*
X1484579Y-4201617D01*
X1486458Y-4204817D01*
X1487119Y-4208373D01*
X1486458Y-4211929D01*
X1484579Y-4215130D01*
X1475232Y-4225696D01*
X1464716Y-4240580D01*
X1455775Y-4256328D01*
X1448460Y-4273042D01*
X1442923Y-4290364D01*
X1439214Y-4308144D01*
X1437335Y-4326229D01*
X1437335Y-4344517D01*
X1439214Y-4362602D01*
X1442923Y-4380331D01*
X1448460Y-4397705D01*
X1455775Y-4414418D01*
X1464716Y-4430166D01*
X1475232Y-4445000D01*
X1484579Y-4455617D01*
X1486458Y-4458817D01*
X1487119Y-4462373D01*
X1486458Y-4465929D01*
X1484579Y-4469130D01*
X1475232Y-4479696D01*
X1464716Y-4494580D01*
X1455775Y-4510328D01*
X1448460Y-4527042D01*
X1442923Y-4544364D01*
X1439214Y-4562144D01*
X1437335Y-4580229D01*
X1437335Y-4598517D01*
X1439214Y-4616602D01*
X1442923Y-4634331D01*
X1448460Y-4651705D01*
X1455775Y-4668418D01*
X1464716Y-4684166D01*
X1475232Y-4699000D01*
X1484579Y-4709617D01*
X1486458Y-4712817D01*
X1487119Y-4716373D01*
X1486458Y-4719929D01*
X1484579Y-4723130D01*
X1475232Y-4733696D01*
X1464716Y-4748580D01*
X1455775Y-4764328D01*
X1448460Y-4781042D01*
X1442923Y-4798364D01*
X1439214Y-4816144D01*
X1437335Y-4834229D01*
X1437335Y-4852517D01*
X1439214Y-4870602D01*
X1442923Y-4888331D01*
X1448460Y-4905705D01*
X1455775Y-4922418D01*
X1464716Y-4938166D01*
X1475232Y-4953000D01*
X1484579Y-4963617D01*
X1486458Y-4966817D01*
X1487119Y-4970373D01*
X1486458Y-4973929D01*
X1484579Y-4977130D01*
X1475232Y-4987696D01*
X1464716Y-5002580D01*
X1455775Y-5018328D01*
X1448460Y-5035042D01*
X1442923Y-5052364D01*
X1439214Y-5070144D01*
X1437335Y-5088229D01*
X1437335Y-5106517D01*
X1439214Y-5124602D01*
X1442923Y-5142331D01*
X1448460Y-5159705D01*
X1455775Y-5176418D01*
X1464716Y-5192166D01*
X1475232Y-5207000D01*
X1484579Y-5217617D01*
X1486458Y-5220817D01*
X1487119Y-5224373D01*
X1486458Y-5227929D01*
X1484579Y-5231130D01*
X1475232Y-5241696D01*
X1464716Y-5256580D01*
X1455775Y-5272328D01*
X1448460Y-5289042D01*
X1442923Y-5306364D01*
X1439214Y-5324144D01*
X1437335Y-5342229D01*
X1437335Y-5360517D01*
X1439214Y-5378602D01*
X1442923Y-5396331D01*
X1448460Y-5413705D01*
X1455775Y-5430418D01*
X1464716Y-5446166D01*
X1475232Y-5461000D01*
X1484579Y-5471617D01*
X1486458Y-5474817D01*
X1487119Y-5478373D01*
X1486458Y-5481929D01*
X1484579Y-5485130D01*
X1475232Y-5495696D01*
X1464716Y-5510580D01*
X1455775Y-5526328D01*
X1448460Y-5543042D01*
X1442923Y-5560364D01*
X1439214Y-5578144D01*
X1437335Y-5596229D01*
X1437335Y-5614517D01*
X1439214Y-5632602D01*
X1442923Y-5650331D01*
X1448460Y-5667705D01*
X1455775Y-5684418D01*
X1464716Y-5700166D01*
X1475232Y-5715000D01*
X1484579Y-5725617D01*
X1486458Y-5728817D01*
X1487119Y-5732373D01*
X1486458Y-5735929D01*
X1484579Y-5739130D01*
X1475232Y-5749696D01*
X1464716Y-5764580D01*
X1455775Y-5780328D01*
X1448460Y-5797042D01*
X1442923Y-5814364D01*
X1439214Y-5832144D01*
X1437335Y-5850229D01*
X1437335Y-5868517D01*
X1439214Y-5886602D01*
X1442923Y-5904331D01*
X1448460Y-5921705D01*
X1455775Y-5938418D01*
X1464716Y-5954166D01*
X1475232Y-5969000D01*
X1484579Y-5979617D01*
X1486458Y-5982817D01*
X1487119Y-5986373D01*
X1486458Y-5989929D01*
X1484579Y-5993130D01*
X1475232Y-6003696D01*
X1464716Y-6018580D01*
X1455775Y-6034328D01*
X1448460Y-6051042D01*
X1442923Y-6068364D01*
X1439214Y-6086144D01*
X1437335Y-6104229D01*
X1437335Y-6122517D01*
X1439214Y-6140602D01*
X1442923Y-6158331D01*
X1448460Y-6175705D01*
X1455775Y-6192418D01*
X1464716Y-6208166D01*
X1475232Y-6223000D01*
X1484579Y-6233617D01*
X1486458Y-6236817D01*
X1487119Y-6240373D01*
X1486458Y-6243929D01*
X1484579Y-6247130D01*
X1475232Y-6257696D01*
X1464716Y-6272580D01*
X1455775Y-6288328D01*
X1448460Y-6305042D01*
X1442923Y-6322364D01*
X1439214Y-6340144D01*
X1437335Y-6358229D01*
X1437335Y-6376517D01*
X1439214Y-6394602D01*
X1442923Y-6412331D01*
X1448460Y-6429705D01*
X1455775Y-6446418D01*
X1464716Y-6462166D01*
X1475232Y-6477000D01*
X1484579Y-6487617D01*
X1486458Y-6490817D01*
X1487119Y-6494373D01*
X1486458Y-6497929D01*
X1484579Y-6501130D01*
X1475232Y-6511696D01*
X1464716Y-6526580D01*
X1455775Y-6542328D01*
X1448460Y-6559042D01*
X1442821Y-6576923D01*
X1569364Y-6576923D01*
X1569364Y-6551015D01*
X1570024Y-6547459D01*
X1571904Y-6544309D01*
X1574749Y-6542074D01*
X1578203Y-6540906D01*
X1582115Y-6541211D01*
X1600149Y-6543548D01*
X1618335Y-6544056D01*
X1636471Y-6542633D01*
X1646275Y-6540804D01*
X1650695Y-6540957D01*
X1654606Y-6543040D01*
X1657299Y-6546545D01*
X1658264Y-6550863D01*
X1658264Y-6576923D01*
X1784553Y-6576923D01*
X1782114Y-6567627D01*
X1775714Y-6550609D01*
X1774189Y-6547612D01*
X1773174Y-6543649D01*
X1773732Y-6539636D01*
X1775917Y-6536080D01*
X1779270Y-6533794D01*
X1783283Y-6532930D01*
X2278024Y-6532930D01*
X2282190Y-6533845D01*
X2285644Y-6536334D01*
X2287727Y-6540042D01*
X2288133Y-6544309D01*
X2286711Y-6548424D01*
X2284780Y-6551472D01*
X2276602Y-6568541D01*
X2270150Y-6586270D01*
X2268829Y-6591300D01*
X2400300Y-6591300D01*
X2400300Y-6543090D01*
X2401062Y-6539230D01*
X2403297Y-6535877D01*
X2406599Y-6533692D01*
X2410460Y-6532930D01*
X2491740Y-6532930D01*
X2495651Y-6533692D01*
X2498953Y-6535877D01*
X2501138Y-6539230D01*
X2501900Y-6543090D01*
X2501900Y-6591300D01*
X2509774Y-6591300D01*
X2513380Y-6592011D01*
X2516530Y-6593890D01*
X2518816Y-6596786D01*
X2519883Y-6600342D01*
X2519476Y-6604609D01*
X2516682Y-6623253D01*
X2515717Y-6642100D01*
X2516682Y-6660946D01*
X2519629Y-6680200D01*
X2519883Y-6683857D01*
X2518816Y-6687413D01*
X2516530Y-6690309D01*
X2513380Y-6692188D01*
X2509774Y-6692900D01*
X2501900Y-6692900D01*
X2501900Y-6824268D01*
X2511450Y-6821627D01*
X2529027Y-6814718D01*
X2545791Y-6806082D01*
X2561691Y-6795871D01*
X2571699Y-6787896D01*
X2574798Y-6786168D01*
X2578303Y-6785609D01*
X2581757Y-6786372D01*
X2584754Y-6788150D01*
X2587040Y-6790131D01*
X2602382Y-6801154D01*
X2618689Y-6810603D01*
X2635910Y-6818375D01*
X2653792Y-6824421D01*
X2672232Y-6828586D01*
X2690977Y-6830923D01*
X2709824Y-6831431D01*
X2728671Y-6830009D01*
X2747264Y-6826707D01*
X2765450Y-6821627D01*
X2776220Y-6817359D01*
X2780080Y-6816699D01*
X2783941Y-6817563D01*
X2787192Y-6819747D01*
X2789326Y-6823049D01*
X2790088Y-6826961D01*
X2789275Y-6830822D01*
X2787091Y-6834022D01*
X2575458Y-7045706D01*
X2569413Y-7052106D01*
X2563774Y-7058609D01*
X2558542Y-7065518D01*
X2553614Y-7072630D01*
X2549093Y-7080046D01*
X2544927Y-7087666D01*
X2541219Y-7095490D01*
X2537917Y-7103465D01*
X2535021Y-7111695D01*
X2532532Y-7119975D01*
X2530500Y-7128357D01*
X2528925Y-7136892D01*
X2527808Y-7145477D01*
X2527147Y-7154164D01*
X2526893Y-7162952D01*
X2526893Y-8067903D01*
X2526131Y-8071815D01*
X2523947Y-8075117D01*
X2233117Y-8365896D01*
X2229815Y-8368080D01*
X2225954Y-8368842D01*
X589229Y-8368842D01*
X585317Y-8368080D01*
X582015Y-8365896D01*
X579831Y-8362645D01*
X579069Y-8358733D01*
X579831Y-8354872D01*
X582015Y-8351520D01*
X1730756Y-7202779D01*
X1736801Y-7196429D01*
X1742439Y-7189876D01*
X1747723Y-7182967D01*
X1752650Y-7175804D01*
X1757172Y-7168388D01*
X1761286Y-7160818D01*
X1765046Y-7152995D01*
X1768348Y-7144969D01*
X1771243Y-7136790D01*
X1773682Y-7128509D01*
X1775714Y-7120077D01*
X1777288Y-7111542D01*
X1778406Y-7102957D01*
X1779117Y-7094321D01*
X1779320Y-7085533D01*
X1779320Y-6938365D01*
X1779981Y-6934809D01*
X1782114Y-6929069D01*
X1786737Y-6911492D01*
X1789582Y-6893509D01*
X1790496Y-6875373D01*
X1789582Y-6857238D01*
X1786737Y-6839203D01*
X1782114Y-6821627D01*
X1775714Y-6804609D01*
X1767586Y-6788353D01*
X1757832Y-6772960D01*
X1746504Y-6758686D01*
X1743354Y-6755434D01*
X1741220Y-6752234D01*
X1740458Y-6748373D01*
X1741220Y-6744512D01*
X1743354Y-6741261D01*
X1746504Y-6738061D01*
X1757832Y-6723786D01*
X1767586Y-6708394D01*
X1775714Y-6692138D01*
X1782114Y-6675069D01*
X1784553Y-6665823D01*
X1658264Y-6665823D01*
X1658264Y-6691884D01*
X1657299Y-6696202D01*
X1654606Y-6699707D01*
X1650695Y-6701790D01*
X1646275Y-6701891D01*
X1636471Y-6700113D01*
X1618335Y-6698691D01*
X1600149Y-6699199D01*
X1581861Y-6701586D01*
X1578203Y-6701840D01*
X1574749Y-6700672D01*
X1571904Y-6698437D01*
X1570024Y-6695287D01*
X1569364Y-6691680D01*
X1569364Y-6665823D01*
X1442821Y-6665823D01*
X1448460Y-6683705D01*
X1455775Y-6700418D01*
X1464716Y-6716166D01*
X1475232Y-6731000D01*
X1484579Y-6741617D01*
X1486458Y-6744817D01*
X1487119Y-6748373D01*
X1486458Y-6751929D01*
X1484579Y-6755130D01*
X1475232Y-6765696D01*
X1464716Y-6780530D01*
X1455775Y-6796328D01*
X1448460Y-6813042D01*
X1442923Y-6830364D01*
X1439214Y-6848144D01*
X1437335Y-6866229D01*
X1437335Y-6884517D01*
X1439214Y-6902602D01*
X1442923Y-6920331D01*
X1447850Y-6935774D01*
X1448308Y-6938822D01*
X1448308Y-7012940D01*
X1447546Y-7016851D01*
X1445361Y-7020102D01*
X99517Y-8365896D01*
X96215Y-8368080D01*
X92354Y-8368842D01*
X-3508603Y-8368842D01*
X-3512515Y-8368080D01*
X-3515817Y-8365896D01*
X-3603396Y-8278317D01*
X-3605580Y-8275015D01*
X-3606393Y-8271103D01*
X-3606393Y-5954014D01*
X-3605580Y-5950102D01*
X-3603345Y-5946749D01*
X-3599942Y-5944514D01*
X-3596030Y-5943803D01*
X-3592068Y-5944768D01*
X-3589782Y-5945784D01*
X-3581755Y-5948629D01*
X-3573424Y-5951067D01*
X-3564991Y-5953099D01*
X-3556457Y-5954623D01*
X-3547872Y-5955792D01*
X-3539236Y-5956503D01*
X-3530447Y-5956706D01*
X-3345129Y-5956706D01*
X-3341268Y-5957519D01*
X-3337966Y-5959652D01*
X-3026664Y-6271006D01*
X-3024479Y-6274257D01*
X-3023717Y-6278118D01*
X-3023717Y-6506819D01*
X-3023057Y-6518859D01*
X-3023463Y-6523837D01*
X-3023463Y-6541160D01*
X-3021634Y-6558381D01*
X-3019552Y-6568186D01*
X-3019348Y-6570268D01*
X-3019348Y-6667906D01*
X-3002026Y-6662826D01*
X-2985820Y-6655968D01*
X-2981553Y-6653580D01*
X-2977438Y-6652310D01*
X-2973120Y-6652971D01*
X-2969463Y-6655257D01*
X-2771089Y-6853631D01*
X-2768854Y-6856933D01*
X-2768092Y-6860844D01*
X-2768092Y-7053325D01*
X-2768854Y-7057186D01*
X-2771089Y-7060488D01*
X-2774391Y-7062673D01*
X-2778252Y-7063486D01*
X-2805226Y-7063486D01*
X-2805226Y-7222642D01*
X-2802077Y-7222642D01*
X-2797860Y-7223556D01*
X-2794355Y-7226147D01*
X-2792323Y-7229957D01*
X-2792171Y-7235291D01*
X-2793085Y-7254290D01*
X-2793085Y-7333742D01*
X-2792171Y-7352639D01*
X-2792323Y-7357973D01*
X-2794355Y-7361834D01*
X-2797860Y-7364425D01*
X-2802077Y-7365339D01*
X-2805226Y-7365339D01*
X-2805226Y-7524496D01*
X-2766923Y-7524496D01*
X-2753461Y-7523581D01*
X-2740609Y-7521041D01*
X-2728163Y-7516825D01*
X-2716377Y-7510983D01*
X-2705404Y-7503718D01*
X-2700832Y-7500924D01*
X-2696616Y-7500518D01*
X-2692400Y-7501991D01*
X-2675483Y-7509967D01*
X-2657906Y-7516266D01*
X-2639771Y-7520838D01*
X-2621280Y-7523581D01*
X-2602585Y-7524496D01*
X-2583942Y-7523581D01*
X-2565450Y-7520838D01*
X-2547315Y-7516266D01*
X-2529128Y-7509764D01*
X-2525166Y-7508798D01*
X-2521153Y-7509357D01*
X-2517698Y-7511542D01*
X-2515412Y-7514894D01*
X-2514600Y-7518908D01*
X-2515463Y-7901482D01*
X-2516276Y-7905394D01*
X-2518460Y-7908645D01*
X-2521813Y-7910830D01*
X-2525725Y-7911592D01*
X-2529636Y-7910830D01*
X-2536240Y-7907934D01*
X-2551836Y-7903057D01*
X-2551836Y-8033003D01*
X-2546146Y-8033003D01*
X-2542286Y-8033867D01*
X-2538984Y-8036001D01*
X-2536748Y-8039303D01*
X-2535986Y-8043214D01*
X-2535986Y-8120583D01*
X-2536748Y-8124444D01*
X-2538984Y-8127746D01*
X-2542286Y-8129930D01*
X-2546146Y-8130743D01*
X-2551836Y-8130743D01*
X-2551836Y-8260689D01*
X-2536240Y-8255812D01*
X-2518968Y-8248396D01*
X-2510282Y-8243570D01*
X-2506370Y-8242401D01*
X-2502255Y-8242808D01*
X-2498648Y-8244890D01*
X-2496667Y-8246618D01*
X-2485745Y-8253882D01*
X-2473960Y-8259724D01*
X-2461514Y-8263991D01*
X-2448610Y-8266480D01*
X-2435148Y-8267446D01*
X-2265832Y-8267446D01*
X-2252370Y-8266480D01*
X-2239467Y-8263991D01*
X-2227021Y-8259724D01*
X-2215235Y-8253882D01*
X-2204313Y-8246618D01*
X-2194458Y-8237931D01*
X-2185771Y-8228025D01*
X-2178456Y-8217103D01*
X-2172665Y-8205368D01*
X-2168448Y-8192871D01*
X-2165858Y-8179968D01*
X-2164994Y-8166557D01*
X-2164994Y-7997240D01*
X-2165858Y-7983778D01*
X-2168448Y-7970926D01*
X-2172665Y-7958429D01*
X-2178456Y-7946644D01*
X-2182825Y-7940141D01*
X-2184095Y-7937449D01*
X-2184501Y-7934452D01*
X-2183384Y-7432243D01*
X-2183028Y-7429601D01*
X-2180590Y-7424826D01*
X-2172614Y-7407859D01*
X-2166315Y-7390282D01*
X-2161743Y-7372146D01*
X-2159000Y-7353655D01*
X-2158085Y-7334707D01*
X-2158085Y-7255256D01*
X-2159000Y-7236307D01*
X-2161743Y-7217816D01*
X-2166315Y-7199680D01*
X-2172614Y-7182103D01*
X-2182672Y-7161022D01*
X-2183079Y-7158228D01*
X-2183079Y-6478676D01*
X-2182418Y-6473799D01*
X-2181707Y-6464960D01*
X-2181504Y-6456273D01*
X-2181707Y-6447637D01*
X-2182418Y-6438696D01*
X-2183536Y-6430416D01*
X-2185670Y-6419545D01*
X-2185822Y-6417564D01*
X-2185822Y-6295491D01*
X-2203145Y-6300571D01*
X-2219350Y-6307429D01*
X-2234742Y-6316014D01*
X-2240940Y-6320383D01*
X-2244648Y-6321958D01*
X-2248712Y-6321958D01*
X-2252472Y-6320434D01*
X-2256688Y-6317589D01*
X-2266950Y-6311392D01*
X-2271674Y-6308902D01*
X-2282799Y-6303772D01*
X-2287524Y-6301892D01*
X-2299411Y-6297828D01*
X-2303983Y-6296507D01*
X-2316530Y-6293612D01*
X-2320899Y-6292850D01*
X-2333955Y-6291275D01*
X-2351532Y-6290818D01*
X-2369108Y-6292240D01*
X-2386431Y-6295542D01*
X-2403297Y-6300622D01*
X-2421991Y-6308750D01*
X-2434945Y-6316065D01*
X-2451150Y-6327749D01*
X-2462479Y-6337757D01*
X-2471623Y-6347206D01*
X-2477211Y-6353708D01*
X-2482443Y-6360566D01*
X-2487371Y-6367780D01*
X-2491892Y-6375146D01*
X-2496058Y-6382715D01*
X-2499766Y-6390538D01*
X-2503068Y-6398564D01*
X-2505964Y-6406692D01*
X-2508453Y-6415074D01*
X-2510485Y-6423507D01*
X-2512060Y-6431991D01*
X-2513177Y-6440576D01*
X-2513838Y-6449263D01*
X-2514092Y-6458051D01*
X-2514092Y-6617970D01*
X-2514854Y-6621881D01*
X-2517038Y-6625234D01*
X-2520340Y-6627368D01*
X-2524252Y-6628180D01*
X-2528112Y-6627368D01*
X-2531414Y-6625234D01*
X-2689707Y-6466941D01*
X-2691892Y-6463588D01*
X-2692654Y-6459728D01*
X-2692654Y-6205575D01*
X-2692908Y-6196736D01*
X-2693568Y-6188049D01*
X-2694736Y-6179464D01*
X-2696311Y-6170980D01*
X-2698343Y-6162598D01*
X-2700782Y-6154267D01*
X-2703677Y-6146038D01*
X-2706979Y-6138113D01*
X-2710738Y-6130290D01*
X-2714853Y-6122619D01*
X-2719374Y-6115253D01*
X-2724302Y-6108090D01*
X-2729585Y-6101232D01*
X-2735173Y-6094679D01*
X-2741269Y-6088278D01*
X-3142132Y-5687364D01*
X-3143453Y-5685688D01*
X-3150463Y-5674969D01*
X-3161690Y-5661101D01*
X-3174288Y-5648452D01*
X-3188157Y-5637225D01*
X-3203143Y-5627522D01*
X-3219043Y-5619445D01*
X-3235706Y-5613095D01*
X-3252927Y-5608421D01*
X-3270554Y-5605678D01*
X-3288385Y-5604713D01*
X-3306216Y-5605678D01*
X-3323844Y-5608421D01*
X-3341065Y-5613095D01*
X-3357727Y-5619445D01*
X-3367836Y-5624576D01*
X-3370072Y-5625388D01*
X-3372408Y-5625642D01*
X-3457803Y-5625642D01*
X-3461715Y-5624880D01*
X-3465017Y-5622696D01*
X-3603396Y-5484317D01*
X-3605580Y-5481015D01*
X-3606393Y-5477103D01*
X-3606393Y-4589119D01*
X-3605631Y-4585411D01*
X-3603599Y-4582109D01*
X-3600450Y-4579924D01*
X-3596741Y-4579010D01*
X-3592931Y-4579569D01*
X-3589578Y-4581499D01*
X-3583940Y-4586376D01*
X-3577082Y-4591558D01*
X-3569919Y-4596536D01*
X-3562553Y-4601057D01*
X-3554933Y-4605121D01*
X-3547110Y-4608880D01*
X-3539083Y-4612233D01*
X-3530955Y-4615129D01*
X-3522624Y-4617567D01*
X-3514191Y-4619599D01*
X-3505657Y-4621123D01*
X-3497072Y-4622292D01*
X-3488436Y-4623003D01*
X-3479647Y-4623206D01*
X-3399942Y-4623206D01*
X-3395878Y-4624019D01*
X-3392474Y-4626457D01*
X-3390341Y-4629962D01*
X-3389782Y-4634026D01*
X-3390900Y-4638090D01*
X-3393541Y-4641240D01*
X-3402482Y-4648454D01*
X-3415080Y-4661103D01*
X-3426307Y-4674971D01*
X-3436061Y-4689957D01*
X-3444138Y-4705807D01*
X-3450539Y-4722469D01*
X-3455162Y-4739792D01*
X-3457956Y-4757369D01*
X-3458870Y-4775200D01*
X-3457956Y-4793030D01*
X-3455162Y-4810607D01*
X-3450539Y-4827879D01*
X-3444138Y-4844542D01*
X-3436061Y-4860442D01*
X-3426307Y-4875428D01*
X-3415080Y-4889246D01*
X-3402482Y-4901946D01*
X-3388614Y-4913172D01*
X-3373628Y-4922875D01*
X-3357727Y-4930952D01*
X-3341065Y-4937302D01*
X-3323844Y-4941976D01*
X-3306216Y-4944719D01*
X-3288385Y-4945684D01*
X-3270554Y-4944719D01*
X-3252927Y-4941976D01*
X-3246882Y-4940706D01*
X-2299055Y-4940706D01*
X-2295144Y-4941519D01*
X-2291842Y-4943652D01*
X-2035048Y-5200446D01*
X-2032965Y-5203545D01*
X-2027428Y-5216194D01*
X-2018284Y-5232349D01*
X-2007514Y-5247487D01*
X-1995271Y-5261457D01*
X-1981606Y-5274106D01*
X-1966722Y-5285282D01*
X-1950821Y-5294782D01*
X-1934006Y-5302656D01*
X-1916430Y-5308803D01*
X-1898345Y-5313019D01*
X-1879904Y-5315407D01*
X-1861362Y-5315915D01*
X-1842820Y-5314492D01*
X-1824532Y-5311190D01*
X-1806702Y-5305958D01*
X-1789480Y-5298998D01*
X-1773072Y-5290261D01*
X-1757629Y-5279898D01*
X-1745437Y-5269687D01*
X-1742236Y-5267858D01*
X-1738680Y-5267299D01*
X-1735074Y-5268010D01*
X-1732025Y-5269992D01*
X-1727606Y-5274106D01*
X-1712722Y-5285282D01*
X-1696821Y-5294782D01*
X-1680006Y-5302656D01*
X-1662430Y-5308803D01*
X-1658315Y-5309768D01*
X-1658315Y-5181803D01*
X-1678889Y-5181803D01*
X-1683156Y-5180888D01*
X-1686610Y-5178298D01*
X-1688693Y-5174488D01*
X-1688947Y-5170119D01*
X-1686458Y-5154015D01*
X-1685493Y-5135473D01*
X-1686458Y-5116931D01*
X-1688947Y-5100828D01*
X-1688693Y-5096510D01*
X-1686610Y-5092700D01*
X-1683156Y-5090058D01*
X-1678889Y-5089144D01*
X-1658315Y-5089144D01*
X-1658315Y-4961229D01*
X-1662430Y-4962194D01*
X-1680006Y-4968341D01*
X-1696821Y-4976164D01*
X-1712722Y-4985715D01*
X-1727606Y-4996891D01*
X-1732025Y-5001006D01*
X-1735074Y-5002987D01*
X-1738680Y-5003647D01*
X-1742236Y-5003088D01*
X-1745437Y-5001310D01*
X-1757629Y-4991100D01*
X-1773072Y-4980736D01*
X-1789480Y-4971999D01*
X-1797557Y-4968748D01*
X-1800910Y-4966462D01*
X-2109165Y-4658258D01*
X-2115515Y-4652213D01*
X-2122119Y-4646574D01*
X-2129028Y-4641291D01*
X-2136140Y-4636363D01*
X-2143556Y-4631842D01*
X-2151126Y-4627778D01*
X-2158949Y-4624019D01*
X-2166975Y-4620666D01*
X-2175154Y-4617770D01*
X-2183434Y-4615332D01*
X-2191867Y-4613300D01*
X-2200402Y-4611776D01*
X-2208987Y-4610557D01*
X-2217623Y-4609896D01*
X-2226411Y-4609642D01*
X-2870555Y-4609642D01*
X-2874670Y-4608880D01*
X-2878074Y-4606442D01*
X-2880156Y-4602784D01*
X-2880664Y-4598619D01*
X-2879445Y-4594656D01*
X-2876753Y-4591456D01*
X-2870047Y-4586325D01*
X-2863443Y-4580686D01*
X-2857042Y-4574641D01*
X-2217978Y-3935526D01*
X-2205583Y-3927195D01*
X-2191715Y-3915968D01*
X-2179066Y-3903421D01*
X-2167839Y-3889501D01*
X-2158136Y-3874566D01*
X-2150008Y-3858615D01*
X-2143658Y-3841953D01*
X-2139035Y-3824782D01*
X-2136241Y-3807155D01*
X-2135276Y-3789273D01*
X-2136241Y-3771442D01*
X-2139035Y-3753815D01*
X-2143658Y-3736594D01*
X-2150008Y-3719931D01*
X-2158136Y-3704031D01*
X-2167839Y-3689096D01*
X-2179066Y-3675176D01*
X-2191715Y-3662629D01*
X-2205583Y-3651402D01*
X-2220518Y-3641648D01*
X-2236419Y-3633520D01*
X-2253081Y-3627120D01*
X-2270353Y-3622548D01*
X-2287981Y-3619703D01*
X-2305761Y-3618788D01*
X-2323592Y-3619703D01*
X-2341219Y-3622548D01*
X-2358491Y-3627120D01*
X-2375154Y-3633520D01*
X-2391054Y-3641648D01*
X-2405989Y-3651402D01*
X-2419858Y-3662629D01*
X-2432507Y-3675176D01*
X-2443734Y-3689096D01*
X-2450693Y-3699814D01*
X-2452014Y-3701440D01*
X-3039770Y-4289196D01*
X-3043072Y-4291380D01*
X-3046933Y-4292142D01*
X-3407003Y-4292142D01*
X-3410915Y-4291380D01*
X-3414217Y-4289196D01*
X-3603396Y-4100017D01*
X-3605580Y-4096715D01*
X-3606393Y-4092803D01*
X-3606393Y-275945D01*
X-3605580Y-272034D01*
X-3603396Y-268782D01*
X-3503117Y-168452D01*
X-3499815Y-166319D01*
X-3495903Y-165506D01*
X-2309063Y-165506D01*
X-2303018Y-166776D01*
X-2285390Y-169519D01*
X-2267559Y-170484D01*
X-2249728Y-169519D01*
X-2232101Y-166776D01*
X-2226056Y-165506D01*
X-734263Y-165506D01*
X-728218Y-166776D01*
X-710590Y-169519D01*
X-692759Y-170484D01*
X-674928Y-169519D01*
X-657301Y-166776D01*
X-651256Y-165506D01*
X1056436Y-165506D01*
X1062482Y-166776D01*
X1080109Y-169519D01*
X1097940Y-170484D01*
X1115771Y-169519D01*
X1133398Y-166776D01*
X1139444Y-165506D01*
X2707436Y-165506D01*
X2713482Y-166776D01*
X2731109Y-169519D01*
X2748940Y-170484D01*
X2766771Y-169519D01*
X2784398Y-166776D01*
X2801620Y-162102D01*
X2818282Y-155752D01*
X2834182Y-147675D01*
X2849168Y-137972D01*
X2863037Y-126746D01*
X2875635Y-114046D01*
X2886862Y-100228D01*
X2896616Y-85242D01*
X2904693Y-69342D01*
X2911094Y-52679D01*
X2915716Y-35407D01*
X2918510Y-17830D01*
X2919425Y0D01*
X2918510Y17830D01*
X2915716Y35407D01*
X2911094Y52730D01*
X2904693Y69392D01*
X2896616Y85242D01*
X2886862Y100228D01*
X2875635Y114046D01*
X2863037Y126746D01*
X2849168Y137972D01*
X2834182Y147675D01*
X2818282Y155803D01*
X2801620Y162153D01*
X2784398Y166776D01*
X2766771Y169570D01*
X2748940Y170535D01*
X2731109Y169570D01*
X2713482Y166776D01*
X2707436Y165557D01*
X1139444Y165557D01*
X1133398Y166776D01*
X1115771Y169570D01*
X1097940Y170535D01*
X1080109Y169570D01*
X1062482Y166776D01*
X1056436Y165557D01*
X-651256Y165557D01*
X-657301Y166776D01*
X-674928Y169570D01*
X-692759Y170535D01*
X-710590Y169570D01*
X-728218Y166776D01*
X-734263Y165557D01*
X-2226056Y165557D01*
X-2232101Y166776D01*
X-2249728Y169570D01*
X-2267559Y170535D01*
X-2285390Y169570D01*
X-2303018Y166776D01*
X-2309063Y165557D01*
X-3568547Y165557D01*
X-3577336Y165303D01*
X-3585972Y164642D01*
X-3594557Y163423D01*
X-3603091Y161899D01*
X-3611524Y159867D01*
X-3619855Y157429D01*
X-3627983Y154533D01*
X-3636010Y151180D01*
X-3643833Y147421D01*
X-3651453Y143357D01*
X-3658819Y138836D01*
X-3665982Y133908D01*
X-3672840Y128625D01*
X-3679444Y122986D01*
X-3685794Y116941D01*
X-3888841Y-86106D01*
X-3894886Y-92506D01*
X-3900525Y-99009D01*
X-3905758Y-105918D01*
X-3910685Y-113080D01*
X-3915206Y-120446D01*
X-3919372Y-128066D01*
X-3923080Y-135890D01*
X-3926382Y-143865D01*
X-3928516Y-149910D01*
X-3930599Y-153365D01*
X-3933901Y-155752D01*
X-3937812Y-156667D01*
X-3941775Y-156057D01*
X-3945178Y-153822D01*
X-3947464Y-150469D01*
X-3948277Y-146507D01*
X-3948277Y1107338D01*
X-3947515Y1111250D01*
X-3945280Y1114450D01*
X-3942029Y1116736D01*
X-3938117Y1117447D01*
X5989726Y1117447D01*
X5993638Y1116736D01*
X5996889Y1114450D01*
X5999124Y1111250D01*
X5999886Y1107338D01*
X5999886Y-8820505D01*
X5999124Y-8824417D01*
X5996889Y-8827668D01*
X5993638Y-8829903D01*
X5989726Y-8830665D01*
G37*

%LPC*%
G36*
X-2649524Y-8260689D02*
G01*
X-2649524Y-8130743D01*
X-2779420Y-8130743D01*
X-2777693Y-8137448D01*
X-2771140Y-8155076D01*
X-2762859Y-8171891D01*
X-2752902Y-8187842D01*
X-2741422Y-8202675D01*
X-2728468Y-8216341D01*
X-2714244Y-8228533D01*
X-2698800Y-8239302D01*
X-2682392Y-8248396D01*
X-2665120Y-8255812D01*
G37*
G36*
X-2779420Y-8033003D02*
G01*
X-2649524Y-8033003D01*
X-2649524Y-7903057D01*
X-2665120Y-7907934D01*
X-2682392Y-7915351D01*
X-2698800Y-7924495D01*
X-2714244Y-7935264D01*
X-2728468Y-7947456D01*
X-2741422Y-7961122D01*
X-2752902Y-7975904D01*
X-2762859Y-7991906D01*
X-2771140Y-8008721D01*
X-2777693Y-8026349D01*
G37*
G36*
X-2946247Y-7524496D02*
G01*
X-2907944Y-7524496D01*
X-2907944Y-7365339D01*
X-3047085Y-7365339D01*
X-3047085Y-7423658D01*
X-3046222Y-7437069D01*
X-3043682Y-7449972D01*
X-3039414Y-7462418D01*
X-3033623Y-7474203D01*
X-3026308Y-7485125D01*
X-3017672Y-7495082D01*
X-3007766Y-7503718D01*
X-2996844Y-7510983D01*
X-2985058Y-7516825D01*
X-2972612Y-7521041D01*
X-2959709Y-7523581D01*
G37*
G36*
X-3047085Y-7222642D02*
G01*
X-2907944Y-7222642D01*
X-2907944Y-7063486D01*
X-2946247Y-7063486D01*
X-2959709Y-7064349D01*
X-2972612Y-7066940D01*
X-2985058Y-7071156D01*
X-2996844Y-7076998D01*
X-3007766Y-7084314D01*
X-3017672Y-7092899D01*
X-3026308Y-7102856D01*
X-3033623Y-7113727D01*
X-3039414Y-7125512D01*
X-3043682Y-7138009D01*
X-3046222Y-7150862D01*
X-3047085Y-7164374D01*
G37*
G36*
X2400300Y-6824522D02*
G01*
X2400300Y-6692900D01*
X2268829Y-6692900D01*
X2270150Y-6697929D01*
X2276602Y-6715658D01*
X2284780Y-6732676D01*
X2294636Y-6748780D01*
X2306015Y-6763867D01*
X2318867Y-6777634D01*
X2333040Y-6790131D01*
X2348382Y-6801154D01*
X2364689Y-6810603D01*
X2381910Y-6818375D01*
G37*
G36*
X-3097022Y-6667703D02*
G01*
X-3097022Y-6545986D01*
X-3218891Y-6545986D01*
X-3215284Y-6559042D01*
X-3208883Y-6575450D01*
X-3200755Y-6591096D01*
X-3191052Y-6605778D01*
X-3179775Y-6619392D01*
X-3167176Y-6631635D01*
X-3153308Y-6642506D01*
X-3138373Y-6651853D01*
X-3122523Y-6659524D01*
X-3105962Y-6665518D01*
G37*
G36*
X-2108149Y-6616903D02*
G01*
X-2099208Y-6614718D01*
X-2082647Y-6608724D01*
X-2066798Y-6601053D01*
X-2051862Y-6591706D01*
X-2037994Y-6580835D01*
X-2025396Y-6568592D01*
X-2014118Y-6554978D01*
X-2004415Y-6540296D01*
X-1996287Y-6524650D01*
X-1989886Y-6508242D01*
X-1986280Y-6495186D01*
X-2108149Y-6495186D01*
G37*
G36*
X4572914Y-6494373D02*
G01*
X4591862Y-6493408D01*
X4610658Y-6490614D01*
X4629048Y-6485940D01*
X4646930Y-6479387D01*
X4663998Y-6471158D01*
X4680204Y-6461252D01*
X4695342Y-6449872D01*
X4709261Y-6436868D01*
X4721860Y-6422644D01*
X4732934Y-6407251D01*
X4742434Y-6390792D01*
X4750257Y-6373469D01*
X4756302Y-6355537D01*
X4760518Y-6336995D01*
X4762855Y-6318097D01*
X4763363Y-6299149D01*
X4761941Y-6280251D01*
X4758639Y-6261506D01*
X4753508Y-6243269D01*
X4746548Y-6225590D01*
X4737912Y-6208623D01*
X4727600Y-6192672D01*
X4715764Y-6177838D01*
X4702505Y-6164224D01*
X4687925Y-6152032D01*
X4672228Y-6141313D01*
X4655566Y-6132271D01*
X4638090Y-6124905D01*
X4625898Y-6121146D01*
X4623612Y-6120130D01*
X4621682Y-6118656D01*
X4339844Y-5836767D01*
X4337608Y-5833414D01*
X4336846Y-5829554D01*
X4336846Y-5257190D01*
X4337507Y-5253634D01*
X4339386Y-5250484D01*
X4341063Y-5248605D01*
X4348378Y-5237632D01*
X4354169Y-5225846D01*
X4358386Y-5213451D01*
X4360976Y-5200497D01*
X4361840Y-5187086D01*
X4361840Y-5145176D01*
X4362602Y-5141264D01*
X4364837Y-5137962D01*
X4750155Y-4752644D01*
X4756200Y-4746244D01*
X4761839Y-4739690D01*
X4767122Y-4732832D01*
X4771999Y-4725619D01*
X4776520Y-4718253D01*
X4780686Y-4710633D01*
X4784394Y-4702810D01*
X4787747Y-4694834D01*
X4790643Y-4686655D01*
X4793081Y-4678324D01*
X4795113Y-4669942D01*
X4796688Y-4661408D01*
X4797806Y-4652822D01*
X4798466Y-4644186D01*
X4798720Y-4635347D01*
X4798720Y-4038142D01*
X4799025Y-4035653D01*
X4799939Y-4033316D01*
X4804816Y-4024325D01*
X4812233Y-4006850D01*
X4817821Y-3988663D01*
X4821580Y-3970070D01*
X4823460Y-3951173D01*
X4823460Y-3932224D01*
X4821580Y-3913276D01*
X4817821Y-3894734D01*
X4812233Y-3876548D01*
X4804816Y-3859072D01*
X4795774Y-3842410D01*
X4785055Y-3826713D01*
X4772863Y-3812133D01*
X4759248Y-3798874D01*
X4744415Y-3786987D01*
X4728464Y-3776675D01*
X4711547Y-3768090D01*
X4693869Y-3761079D01*
X4675581Y-3755999D01*
X4656886Y-3752646D01*
X4637938Y-3751224D01*
X4618990Y-3751732D01*
X4600143Y-3754069D01*
X4581601Y-3758336D01*
X4563618Y-3764330D01*
X4546295Y-3772154D01*
X4529836Y-3781653D01*
X4514443Y-3792728D01*
X4500219Y-3805326D01*
X4487265Y-3819245D01*
X4475835Y-3834384D01*
X4465929Y-3850640D01*
X4457649Y-3867658D01*
X4451197Y-3885539D01*
X4446473Y-3903979D01*
X4443679Y-3922725D01*
X4442714Y-3941673D01*
X4443679Y-3960672D01*
X4446473Y-3979418D01*
X4451197Y-3997807D01*
X4457649Y-4015740D01*
X4467352Y-4035856D01*
X4467707Y-4038549D01*
X4467707Y-4562805D01*
X4466945Y-4566615D01*
X4464710Y-4569917D01*
X4365294Y-4669383D01*
X4362094Y-4671517D01*
X4358284Y-4672380D01*
X4354423Y-4671618D01*
X4351121Y-4669536D01*
X4348886Y-4666386D01*
X4347972Y-4662576D01*
X4348581Y-4658664D01*
X4353356Y-4645507D01*
X4354576Y-4640732D01*
X4222699Y-4640732D01*
X4222699Y-4647184D01*
X4222038Y-4650841D01*
X4220159Y-4653889D01*
X4217365Y-4656175D01*
X4213910Y-4657293D01*
X4210253Y-4657140D01*
X4204411Y-4655769D01*
X4185564Y-4653432D01*
X4166615Y-4652924D01*
X4147667Y-4654346D01*
X4131919Y-4657191D01*
X4127500Y-4656937D01*
X4123639Y-4654905D01*
X4120946Y-4651400D01*
X4119981Y-4647133D01*
X4119981Y-4640732D01*
X3988054Y-4640732D01*
X3992321Y-4654550D01*
X3996232Y-4663744D01*
X3997045Y-4667656D01*
X3996283Y-4671568D01*
X3994048Y-4674870D01*
X3990746Y-4677156D01*
X3986885Y-4677867D01*
X3107791Y-4677867D01*
X3101746Y-4676648D01*
X3084118Y-4673803D01*
X3066338Y-4672888D01*
X3048508Y-4673803D01*
X3030880Y-4676648D01*
X3013608Y-4681220D01*
X2996946Y-4687620D01*
X2981045Y-4695748D01*
X2966110Y-4705502D01*
X2952242Y-4716729D01*
X2939592Y-4729276D01*
X2928366Y-4743196D01*
X2918663Y-4758131D01*
X2910535Y-4774031D01*
X2904185Y-4790694D01*
X2899562Y-4807915D01*
X2896768Y-4825542D01*
X2895803Y-4843373D01*
X2896768Y-4861255D01*
X2899562Y-4878882D01*
X2904185Y-4896053D01*
X2910535Y-4912715D01*
X2918663Y-4928666D01*
X2928366Y-4943602D01*
X2939592Y-4957521D01*
X2952242Y-4970068D01*
X2966110Y-4981295D01*
X2981045Y-4991049D01*
X2996946Y-4999126D01*
X3013608Y-5005527D01*
X3030880Y-5010150D01*
X3048508Y-5012944D01*
X3066338Y-5013858D01*
X3084118Y-5012944D01*
X3101746Y-5010150D01*
X3107791Y-5008930D01*
X3970680Y-5008930D01*
X3974541Y-5009642D01*
X3977843Y-5011877D01*
X3980078Y-5015179D01*
X3980840Y-5019090D01*
X3980840Y-5187086D01*
X3981704Y-5200497D01*
X3984294Y-5213451D01*
X3988511Y-5225846D01*
X3994302Y-5237632D01*
X4001617Y-5248605D01*
X4003294Y-5250484D01*
X4005173Y-5253634D01*
X4005834Y-5257190D01*
X4005834Y-5902198D01*
X4006087Y-5911037D01*
X4006748Y-5919622D01*
X4007865Y-5928207D01*
X4009440Y-5936691D01*
X4011472Y-5945174D01*
X4013962Y-5953506D01*
X4016806Y-5961634D01*
X4020159Y-5969660D01*
X4023868Y-5977483D01*
X4028033Y-5985052D01*
X4032554Y-5992418D01*
X4037431Y-5999581D01*
X4042714Y-6006439D01*
X4048353Y-6013094D01*
X4054398Y-6019495D01*
X4387392Y-6352438D01*
X4389831Y-6356350D01*
X4395571Y-6373469D01*
X4403394Y-6390792D01*
X4412894Y-6407251D01*
X4423968Y-6422644D01*
X4436567Y-6436868D01*
X4450486Y-6449872D01*
X4465624Y-6461252D01*
X4481830Y-6471158D01*
X4498898Y-6479387D01*
X4516780Y-6485940D01*
X4535170Y-6490614D01*
X4553966Y-6493408D01*
G37*
G36*
X-3218891Y-6468211D02*
G01*
X-3097022Y-6468211D01*
X-3097022Y-6346444D01*
X-3105962Y-6348679D01*
X-3122523Y-6354622D01*
X-3138373Y-6362344D01*
X-3153308Y-6371691D01*
X-3167176Y-6382512D01*
X-3179775Y-6394805D01*
X-3191052Y-6408369D01*
X-3200755Y-6423050D01*
X-3208883Y-6438696D01*
X-3215284Y-6455156D01*
G37*
G36*
X-2108149Y-6417411D02*
G01*
X-1986280Y-6417411D01*
X-1989886Y-6404356D01*
X-1996287Y-6387896D01*
X-2004415Y-6372250D01*
X-2014118Y-6357569D01*
X-2025396Y-6344005D01*
X-2037994Y-6331712D01*
X-2051862Y-6320891D01*
X-2066798Y-6311544D01*
X-2082647Y-6303822D01*
X-2099208Y-6297879D01*
X-2108149Y-6295644D01*
G37*
G36*
X-1565656Y-5309768D02*
G01*
X-1552702Y-5305958D01*
X-1535480Y-5298998D01*
X-1519072Y-5290261D01*
X-1503629Y-5279898D01*
X-1489405Y-5267960D01*
X-1476400Y-5254650D01*
X-1464868Y-5240070D01*
X-1454912Y-5224373D01*
X-1446580Y-5207762D01*
X-1440027Y-5190388D01*
X-1437792Y-5181803D01*
X-1565656Y-5181803D01*
G37*
G36*
X-1565656Y-5089144D02*
G01*
X-1437792Y-5089144D01*
X-1440027Y-5080609D01*
X-1446580Y-5063185D01*
X-1454912Y-5046573D01*
X-1464868Y-5030876D01*
X-1476400Y-5016296D01*
X-1489405Y-5003038D01*
X-1503629Y-4991100D01*
X-1519072Y-4980736D01*
X-1535480Y-4971999D01*
X-1552702Y-4964988D01*
X-1565656Y-4961229D01*
G37*
G36*
X3988054Y-4538014D02*
G01*
X4119981Y-4538014D01*
X4119981Y-4406188D01*
X4110685Y-4408779D01*
X4093006Y-4415790D01*
X4076090Y-4424375D01*
X4060139Y-4434687D01*
X4045305Y-4446574D01*
X4031691Y-4459833D01*
X4019499Y-4474413D01*
X4008780Y-4490110D01*
X3999687Y-4506772D01*
X3992321Y-4524248D01*
G37*
G36*
X4222699Y-4538014D02*
G01*
X4354576Y-4538014D01*
X4353356Y-4533239D01*
X4346854Y-4515358D01*
X4338624Y-4498340D01*
X4328718Y-4482084D01*
X4317288Y-4466945D01*
X4304334Y-4453026D01*
X4290110Y-4440428D01*
X4274667Y-4429353D01*
X4258259Y-4419854D01*
X4240936Y-4412030D01*
X4222699Y-4405934D01*
G37*
G36*
X4217670Y-3493668D02*
G01*
X4230624Y-3489858D01*
X4247845Y-3482898D01*
X4264253Y-3474161D01*
X4279696Y-3463798D01*
X4293920Y-3451860D01*
X4306925Y-3438550D01*
X4318457Y-3423970D01*
X4328414Y-3408273D01*
X4336745Y-3391662D01*
X4343298Y-3374288D01*
X4345533Y-3365703D01*
X4217670Y-3365703D01*
G37*
G36*
X4217670Y-3273044D02*
G01*
X4345533Y-3273044D01*
X4343298Y-3264509D01*
X4336745Y-3247085D01*
X4328414Y-3230473D01*
X4318457Y-3214776D01*
X4306925Y-3200196D01*
X4293920Y-3186938D01*
X4279696Y-3175000D01*
X4264253Y-3164636D01*
X4247845Y-3155899D01*
X4230624Y-3148888D01*
X4217670Y-3145129D01*
G37*
G36*
X-1879549Y-3149854D02*
G01*
X-1870608Y-3147618D01*
X-1854047Y-3141624D01*
X-1838198Y-3133953D01*
X-1823262Y-3124606D01*
X-1809394Y-3113735D01*
X-1796796Y-3101492D01*
X-1785518Y-3087878D01*
X-1775815Y-3073196D01*
X-1767687Y-3057550D01*
X-1761286Y-3041142D01*
X-1757680Y-3028086D01*
X-1879549Y-3028086D01*
G37*
G36*
X-1879549Y-2950311D02*
G01*
X-1757680Y-2950311D01*
X-1761286Y-2937256D01*
X-1767687Y-2920796D01*
X-1775815Y-2905150D01*
X-1785518Y-2890469D01*
X-1796796Y-2876905D01*
X-1809394Y-2864612D01*
X-1823262Y-2853791D01*
X-1838198Y-2844444D01*
X-1854047Y-2836722D01*
X-1870608Y-2830779D01*
X-1879549Y-2828544D01*
G37*
G36*
X-2714955Y-2905709D02*
G01*
X-2714955Y-2769768D01*
X-2850896Y-2769768D01*
X-2850438Y-2771648D01*
X-2843834Y-2790088D01*
X-2835402Y-2807919D01*
X-2825292Y-2824784D01*
X-2813558Y-2840634D01*
X-2800350Y-2855214D01*
X-2785770Y-2868422D01*
X-2769971Y-2880156D01*
X-2753106Y-2890215D01*
X-2735326Y-2898648D01*
X-2716784Y-2905252D01*
G37*
G36*
X-3364941Y-2905709D02*
G01*
X-3364941Y-2769768D01*
X-3500882Y-2769768D01*
X-3500424Y-2771648D01*
X-3493820Y-2790088D01*
X-3485387Y-2807919D01*
X-3475278Y-2824784D01*
X-3463544Y-2840634D01*
X-3450336Y-2855214D01*
X-3435756Y-2868422D01*
X-3419957Y-2880156D01*
X-3403092Y-2890215D01*
X-3385312Y-2898648D01*
X-3366770Y-2905252D01*
G37*
G36*
X-3252215Y-2905709D02*
G01*
X-3250387Y-2905252D01*
X-3231845Y-2898648D01*
X-3214065Y-2890215D01*
X-3197199Y-2880156D01*
X-3181400Y-2868422D01*
X-3166821Y-2855214D01*
X-3153613Y-2840634D01*
X-3141878Y-2824784D01*
X-3131769Y-2807919D01*
X-3123336Y-2790088D01*
X-3116732Y-2771648D01*
X-3116275Y-2769768D01*
X-3252215Y-2769768D01*
G37*
G36*
X-2602230Y-2905709D02*
G01*
X-2600401Y-2905252D01*
X-2581859Y-2898648D01*
X-2564079Y-2890215D01*
X-2547213Y-2880156D01*
X-2531414Y-2868422D01*
X-2516835Y-2855214D01*
X-2503627Y-2840634D01*
X-2491892Y-2824784D01*
X-2481783Y-2807919D01*
X-2473350Y-2790088D01*
X-2466746Y-2771648D01*
X-2466289Y-2769768D01*
X-2602230Y-2769768D01*
G37*
G36*
X-2850896Y-2657043D02*
G01*
X-2714955Y-2657043D01*
X-2714955Y-2521102D01*
X-2716784Y-2521559D01*
X-2735326Y-2528163D01*
X-2753106Y-2536545D01*
X-2769971Y-2546654D01*
X-2785770Y-2558389D01*
X-2800350Y-2571597D01*
X-2813558Y-2586177D01*
X-2825292Y-2601976D01*
X-2835402Y-2618892D01*
X-2843834Y-2636672D01*
X-2850438Y-2655163D01*
G37*
G36*
X-2602230Y-2657043D02*
G01*
X-2466289Y-2657043D01*
X-2466746Y-2655163D01*
X-2473350Y-2636672D01*
X-2481783Y-2618892D01*
X-2491892Y-2601976D01*
X-2503627Y-2586177D01*
X-2516835Y-2571597D01*
X-2531414Y-2558389D01*
X-2547213Y-2546654D01*
X-2564079Y-2536545D01*
X-2581859Y-2528163D01*
X-2600401Y-2521559D01*
X-2602230Y-2521102D01*
G37*
G36*
X-3500882Y-2657043D02*
G01*
X-3364941Y-2657043D01*
X-3364941Y-2521102D01*
X-3366770Y-2521559D01*
X-3385312Y-2528163D01*
X-3403092Y-2536545D01*
X-3419957Y-2546654D01*
X-3435756Y-2558389D01*
X-3450336Y-2571597D01*
X-3463544Y-2586177D01*
X-3475278Y-2601976D01*
X-3485387Y-2618892D01*
X-3493820Y-2636672D01*
X-3500424Y-2655163D01*
G37*
G36*
X-3252215Y-2657043D02*
G01*
X-3116275Y-2657043D01*
X-3116732Y-2655163D01*
X-3123336Y-2636672D01*
X-3131769Y-2618892D01*
X-3141878Y-2601976D01*
X-3153613Y-2586177D01*
X-3166821Y-2571597D01*
X-3181400Y-2558389D01*
X-3197199Y-2546654D01*
X-3214065Y-2536545D01*
X-3231845Y-2528163D01*
X-3250387Y-2521559D01*
X-3252215Y-2521102D01*
G37*
G36*
X4699914Y-1876196D02*
G01*
X4718304Y-1870100D01*
X4735525Y-1862328D01*
X4751882Y-1852930D01*
X4767224Y-1841855D01*
X4781346Y-1829409D01*
X4794199Y-1815490D01*
X4805578Y-1800453D01*
X4815433Y-1784350D01*
X4823612Y-1767382D01*
X4830114Y-1749602D01*
X4831384Y-1744573D01*
X4699914Y-1744573D01*
G37*
G36*
X4699914Y-1642973D02*
G01*
X4831384Y-1642973D01*
X4830114Y-1637995D01*
X4823612Y-1620215D01*
X4815433Y-1603248D01*
X4805578Y-1587144D01*
X4794199Y-1572107D01*
X4781346Y-1558188D01*
X4767224Y-1545742D01*
X4751882Y-1534668D01*
X4735525Y-1525219D01*
X4718304Y-1517446D01*
X4699914Y-1511401D01*
G37*
G36*
X-2589530Y-746709D02*
G01*
X-2587701Y-746252D01*
X-2569159Y-739648D01*
X-2551379Y-731215D01*
X-2534513Y-721156D01*
X-2518714Y-709422D01*
X-2504135Y-696214D01*
X-2490927Y-681634D01*
X-2479192Y-665784D01*
X-2469083Y-648919D01*
X-2460650Y-631088D01*
X-2454046Y-612648D01*
X-2453589Y-610768D01*
X-2589530Y-610768D01*
G37*
G36*
X-3239516Y-746709D02*
G01*
X-3237687Y-746252D01*
X-3219145Y-739648D01*
X-3201365Y-731215D01*
X-3184499Y-721156D01*
X-3168700Y-709422D01*
X-3154121Y-696214D01*
X-3140913Y-681634D01*
X-3129178Y-665784D01*
X-3119069Y-648919D01*
X-3110636Y-631088D01*
X-3104032Y-612648D01*
X-3103575Y-610768D01*
X-3239516Y-610768D01*
G37*
G36*
X-2702255Y-746709D02*
G01*
X-2702255Y-610768D01*
X-2838196Y-610768D01*
X-2837738Y-612648D01*
X-2831134Y-631088D01*
X-2822702Y-648919D01*
X-2812592Y-665784D01*
X-2800858Y-681634D01*
X-2787650Y-696214D01*
X-2773070Y-709422D01*
X-2757271Y-721156D01*
X-2740406Y-731215D01*
X-2722626Y-739648D01*
X-2704084Y-746252D01*
G37*
G36*
X-3352241Y-746709D02*
G01*
X-3352241Y-610768D01*
X-3488182Y-610768D01*
X-3487724Y-612648D01*
X-3481120Y-631088D01*
X-3472687Y-648919D01*
X-3462578Y-665784D01*
X-3450844Y-681634D01*
X-3437636Y-696214D01*
X-3423056Y-709422D01*
X-3407257Y-721156D01*
X-3390392Y-731215D01*
X-3372612Y-739648D01*
X-3354070Y-746252D01*
G37*
G36*
X-1752041Y-746709D02*
G01*
X-1752041Y-610768D01*
X-1887982Y-610768D01*
X-1887524Y-612648D01*
X-1880920Y-631088D01*
X-1872488Y-648919D01*
X-1862378Y-665784D01*
X-1850643Y-681634D01*
X-1837436Y-696214D01*
X-1822856Y-709422D01*
X-1807057Y-721156D01*
X-1790192Y-731215D01*
X-1772412Y-739648D01*
X-1753870Y-746252D01*
G37*
G36*
X-1102055Y-746709D02*
G01*
X-1102055Y-610768D01*
X-1237996Y-610768D01*
X-1237538Y-612648D01*
X-1230934Y-631088D01*
X-1222502Y-648919D01*
X-1212392Y-665784D01*
X-1200658Y-681634D01*
X-1187450Y-696214D01*
X-1172870Y-709422D01*
X-1157071Y-721156D01*
X-1140206Y-731215D01*
X-1122426Y-739648D01*
X-1103884Y-746252D01*
G37*
G36*
X-1639316Y-746709D02*
G01*
X-1637487Y-746252D01*
X-1618945Y-739648D01*
X-1601165Y-731215D01*
X-1584299Y-721156D01*
X-1568500Y-709422D01*
X-1553921Y-696214D01*
X-1540713Y-681634D01*
X-1528978Y-665784D01*
X-1518869Y-648919D01*
X-1510436Y-631088D01*
X-1503832Y-612648D01*
X-1503375Y-610768D01*
X-1639316Y-610768D01*
G37*
G36*
X-989330Y-746709D02*
G01*
X-987501Y-746252D01*
X-968959Y-739648D01*
X-951179Y-731215D01*
X-934313Y-721156D01*
X-918514Y-709422D01*
X-903935Y-696214D01*
X-890727Y-681634D01*
X-878992Y-665784D01*
X-868883Y-648919D01*
X-860450Y-631088D01*
X-853846Y-612648D01*
X-853389Y-610768D01*
X-989330Y-610768D01*
G37*
G36*
X663244Y-734009D02*
G01*
X663244Y-598068D01*
X527304Y-598068D01*
X527761Y-599948D01*
X534365Y-618388D01*
X542798Y-636219D01*
X552907Y-653084D01*
X564642Y-668934D01*
X577850Y-683514D01*
X592429Y-696722D01*
X608228Y-708456D01*
X625094Y-718515D01*
X642874Y-726948D01*
X661416Y-733552D01*
G37*
G36*
X13258Y-734009D02*
G01*
X13258Y-598068D01*
X-122682Y-598068D01*
X-122224Y-599948D01*
X-115620Y-618388D01*
X-107187Y-636219D01*
X-97078Y-653084D01*
X-85344Y-668934D01*
X-72136Y-683514D01*
X-57556Y-696722D01*
X-41757Y-708456D01*
X-24892Y-718515D01*
X-7112Y-726948D01*
X11430Y-733552D01*
G37*
G36*
X125983Y-734009D02*
G01*
X127812Y-733552D01*
X146354Y-726948D01*
X164134Y-718515D01*
X181000Y-708456D01*
X196799Y-696722D01*
X211378Y-683514D01*
X224586Y-668934D01*
X236321Y-653084D01*
X246430Y-636219D01*
X254863Y-618388D01*
X261467Y-599948D01*
X261924Y-598068D01*
X125983Y-598068D01*
G37*
G36*
X775970Y-734009D02*
G01*
X777798Y-733552D01*
X796340Y-726948D01*
X814120Y-718515D01*
X830986Y-708456D01*
X846785Y-696722D01*
X861364Y-683514D01*
X874572Y-668934D01*
X886307Y-653084D01*
X896416Y-636219D01*
X904849Y-618388D01*
X911453Y-599948D01*
X911910Y-598068D01*
X775970Y-598068D01*
G37*
G36*
X2288844Y-721309D02*
G01*
X2288844Y-585368D01*
X2152904Y-585368D01*
X2153361Y-587248D01*
X2159965Y-605688D01*
X2168398Y-623519D01*
X2178507Y-640384D01*
X2190242Y-656234D01*
X2203450Y-670814D01*
X2218029Y-684022D01*
X2233828Y-695756D01*
X2250694Y-705815D01*
X2268474Y-714248D01*
X2287016Y-720852D01*
G37*
G36*
X1638858Y-721309D02*
G01*
X1638858Y-585368D01*
X1502918Y-585368D01*
X1503375Y-587248D01*
X1509979Y-605688D01*
X1518412Y-623519D01*
X1528521Y-640384D01*
X1540256Y-656234D01*
X1553464Y-670814D01*
X1568043Y-684022D01*
X1583842Y-695756D01*
X1600708Y-705815D01*
X1618488Y-714248D01*
X1637030Y-720852D01*
G37*
G36*
X1751584Y-721309D02*
G01*
X1753412Y-720852D01*
X1771954Y-714248D01*
X1789734Y-705815D01*
X1806600Y-695756D01*
X1822399Y-684022D01*
X1836978Y-670814D01*
X1850186Y-656234D01*
X1861921Y-640384D01*
X1872030Y-623519D01*
X1880463Y-605688D01*
X1887067Y-587248D01*
X1887524Y-585368D01*
X1751584Y-585368D01*
G37*
G36*
X2401570Y-721309D02*
G01*
X2403398Y-720852D01*
X2421940Y-714248D01*
X2439720Y-705815D01*
X2456586Y-695756D01*
X2472385Y-684022D01*
X2486964Y-670814D01*
X2500172Y-656234D01*
X2511907Y-640384D01*
X2522016Y-623519D01*
X2530449Y-605688D01*
X2537053Y-587248D01*
X2537510Y-585368D01*
X2401570Y-585368D01*
G37*
G36*
X-3488182Y-498043D02*
G01*
X-3352241Y-498043D01*
X-3352241Y-362102D01*
X-3354070Y-362559D01*
X-3372612Y-369163D01*
X-3390392Y-377545D01*
X-3407257Y-387654D01*
X-3423056Y-399389D01*
X-3437636Y-412597D01*
X-3450844Y-427177D01*
X-3462578Y-442976D01*
X-3472687Y-459892D01*
X-3481120Y-477672D01*
X-3487724Y-496163D01*
G37*
G36*
X-2589530Y-498043D02*
G01*
X-2453589Y-498043D01*
X-2454046Y-496163D01*
X-2460650Y-477672D01*
X-2469083Y-459892D01*
X-2479192Y-442976D01*
X-2490927Y-427177D01*
X-2504135Y-412597D01*
X-2518714Y-399389D01*
X-2534513Y-387654D01*
X-2551379Y-377545D01*
X-2569159Y-369163D01*
X-2587701Y-362559D01*
X-2589530Y-362102D01*
G37*
G36*
X-2838196Y-498043D02*
G01*
X-2702255Y-498043D01*
X-2702255Y-362102D01*
X-2704084Y-362559D01*
X-2722626Y-369163D01*
X-2740406Y-377545D01*
X-2757271Y-387654D01*
X-2773070Y-399389D01*
X-2787650Y-412597D01*
X-2800858Y-427177D01*
X-2812592Y-442976D01*
X-2822702Y-459892D01*
X-2831134Y-477672D01*
X-2837738Y-496163D01*
G37*
G36*
X-3239516Y-498043D02*
G01*
X-3103575Y-498043D01*
X-3104032Y-496163D01*
X-3110636Y-477672D01*
X-3119069Y-459892D01*
X-3129178Y-442976D01*
X-3140913Y-427177D01*
X-3154121Y-412597D01*
X-3168700Y-399389D01*
X-3184499Y-387654D01*
X-3201365Y-377545D01*
X-3219145Y-369163D01*
X-3237687Y-362559D01*
X-3239516Y-362102D01*
G37*
G36*
X-1237996Y-498043D02*
G01*
X-1102055Y-498043D01*
X-1102055Y-362102D01*
X-1103884Y-362559D01*
X-1122426Y-369163D01*
X-1140206Y-377545D01*
X-1157071Y-387654D01*
X-1172870Y-399389D01*
X-1187450Y-412597D01*
X-1200658Y-427177D01*
X-1212392Y-442976D01*
X-1222502Y-459892D01*
X-1230934Y-477672D01*
X-1237538Y-496163D01*
G37*
G36*
X-1639316Y-498043D02*
G01*
X-1503375Y-498043D01*
X-1503832Y-496163D01*
X-1510436Y-477672D01*
X-1518869Y-459892D01*
X-1528978Y-442976D01*
X-1540713Y-427177D01*
X-1553921Y-412597D01*
X-1568500Y-399389D01*
X-1584299Y-387654D01*
X-1601165Y-377545D01*
X-1618945Y-369163D01*
X-1637487Y-362559D01*
X-1639316Y-362102D01*
G37*
G36*
X-1887982Y-498043D02*
G01*
X-1752041Y-498043D01*
X-1752041Y-362102D01*
X-1753870Y-362559D01*
X-1772412Y-369163D01*
X-1790192Y-377545D01*
X-1807057Y-387654D01*
X-1822856Y-399389D01*
X-1837436Y-412597D01*
X-1850643Y-427177D01*
X-1862378Y-442976D01*
X-1872488Y-459892D01*
X-1880920Y-477672D01*
X-1887524Y-496163D01*
G37*
G36*
X-989330Y-498043D02*
G01*
X-853389Y-498043D01*
X-853846Y-496163D01*
X-860450Y-477672D01*
X-868883Y-459892D01*
X-878992Y-442976D01*
X-890727Y-427177D01*
X-903935Y-412597D01*
X-918514Y-399389D01*
X-934313Y-387654D01*
X-951179Y-377545D01*
X-968959Y-369163D01*
X-987501Y-362559D01*
X-989330Y-362102D01*
G37*
G36*
X125983Y-485343D02*
G01*
X261924Y-485343D01*
X261467Y-483463D01*
X254863Y-464972D01*
X246430Y-447192D01*
X236321Y-430276D01*
X224586Y-414477D01*
X211378Y-399897D01*
X196799Y-386689D01*
X181000Y-374954D01*
X164134Y-364845D01*
X146354Y-356463D01*
X127812Y-349859D01*
X125983Y-349402D01*
G37*
G36*
X775970Y-485343D02*
G01*
X911910Y-485343D01*
X911453Y-483463D01*
X904849Y-464972D01*
X896416Y-447192D01*
X886307Y-430276D01*
X874572Y-414477D01*
X861364Y-399897D01*
X846785Y-386689D01*
X830986Y-374954D01*
X814120Y-364845D01*
X796340Y-356463D01*
X777798Y-349859D01*
X775970Y-349402D01*
G37*
G36*
X-122682Y-485343D02*
G01*
X13258Y-485343D01*
X13258Y-349402D01*
X11430Y-349859D01*
X-7112Y-356463D01*
X-24892Y-364845D01*
X-41757Y-374954D01*
X-57556Y-386689D01*
X-72136Y-399897D01*
X-85344Y-414477D01*
X-97078Y-430276D01*
X-107187Y-447192D01*
X-115620Y-464972D01*
X-122224Y-483463D01*
G37*
G36*
X527304Y-485343D02*
G01*
X663244Y-485343D01*
X663244Y-349402D01*
X661416Y-349859D01*
X642874Y-356463D01*
X625094Y-364845D01*
X608228Y-374954D01*
X592429Y-386689D01*
X577850Y-399897D01*
X564642Y-414477D01*
X552907Y-430276D01*
X542798Y-447192D01*
X534365Y-464972D01*
X527761Y-483463D01*
G37*
G36*
X2152904Y-472643D02*
G01*
X2288844Y-472643D01*
X2288844Y-336702D01*
X2287016Y-337159D01*
X2268474Y-343763D01*
X2250694Y-352145D01*
X2233828Y-362254D01*
X2218029Y-373989D01*
X2203450Y-387197D01*
X2190242Y-401777D01*
X2178507Y-417576D01*
X2168398Y-434492D01*
X2159965Y-452272D01*
X2153361Y-470763D01*
G37*
G36*
X1751584Y-472643D02*
G01*
X1887524Y-472643D01*
X1887067Y-470763D01*
X1880463Y-452272D01*
X1872030Y-434492D01*
X1861921Y-417576D01*
X1850186Y-401777D01*
X1836978Y-387197D01*
X1822399Y-373989D01*
X1806600Y-362254D01*
X1789734Y-352145D01*
X1771954Y-343763D01*
X1753412Y-337159D01*
X1751584Y-336702D01*
G37*
G36*
X1502918Y-472643D02*
G01*
X1638858Y-472643D01*
X1638858Y-336702D01*
X1637030Y-337159D01*
X1618488Y-343763D01*
X1600708Y-352145D01*
X1583842Y-362254D01*
X1568043Y-373989D01*
X1553464Y-387197D01*
X1540256Y-401777D01*
X1528521Y-417576D01*
X1518412Y-434492D01*
X1509979Y-452272D01*
X1503375Y-470763D01*
G37*
G36*
X2401570Y-472643D02*
G01*
X2537510Y-472643D01*
X2537053Y-470763D01*
X2530449Y-452272D01*
X2522016Y-434492D01*
X2511907Y-417576D01*
X2500172Y-401777D01*
X2486964Y-387197D01*
X2472385Y-373989D01*
X2456586Y-362254D01*
X2439720Y-352145D01*
X2421940Y-343763D01*
X2403398Y-337159D01*
X2401570Y-336702D01*
G37*

%LPD*%
D10*
X-2348585Y-7218794D02*
G01*
X-2348585Y-6457886D01*
X-2346998Y-6456298D01*
X-2602611Y-7217803D02*
G01*
X-2602611Y-6788086D01*
X-2858198Y-6532498D01*
X-2348598Y-7295006D02*
G01*
X-2350376Y-8081898D01*
X-2856611Y-7294003D02*
G01*
X-2856611Y-7825981D01*
X-2600693Y-8081898D01*
X-3058198Y-6507098D02*
G01*
X-3058198Y-7092416D01*
X-2856611Y-7294003D01*
X-3295891Y-1004392D02*
G01*
X-2645905Y-1004392D01*
X-2645907Y-1004389D02*
G01*
X-2641516Y-999997D01*
X-2267572Y-999997D01*
X-1695691Y-1004392D02*
G01*
X-1045705Y-1004392D01*
X-1045707Y-1004389D02*
G01*
X-1041316Y-999997D01*
X-692772Y-999997D01*
X69608Y-991692D02*
G01*
X719594Y-991692D01*
X719592Y-991689D02*
G01*
X727900Y-999997D01*
X1097927Y-999997D01*
X1695208Y-978992D02*
G01*
X2345194Y-978992D01*
X2345192Y-978989D02*
G01*
X2366200Y-999997D01*
X2748927Y-999997D01*
X1613814Y-3319411D02*
G01*
X2142502Y-3319398D01*
X3142500Y-3319398D02*
G01*
X3917327Y-3319398D01*
X1613814Y-4843411D02*
G01*
X2066302Y-4843398D01*
X3066300Y-4843398D02*
G01*
X4171327Y-4843398D01*
X4572901Y-6303898D02*
G01*
X4171327Y-5902325D01*
X4171327Y-5097398D01*
X4171327Y-5097398D02*
G01*
X4633201Y-4635525D01*
X4633201Y-3941698D01*
X4141101Y-1693798D02*
G01*
X3912501Y-1465198D01*
X1275727Y-1465198D01*
X958227Y-1782698D01*
X958227Y-3370198D01*
X1161440Y-3573411D01*
X1613814Y-3573411D01*
X1695208Y-978992D02*
G01*
X1412201Y-1261998D01*
X691527Y-1261998D01*
X488327Y-1465198D01*
X488327Y-3649598D01*
X-197484Y-4335411D01*
X-926185Y-4335411D01*
X-2267572Y-1000125D02*
G01*
X-1827898Y-1439798D01*
X-934072Y-1439798D01*
X-629272Y-1744598D01*
X-629272Y-3446398D01*
X-756272Y-3573398D01*
X-926198Y-3573398D01*
X69608Y-991692D02*
G01*
X-184772Y-1246073D01*
X-184772Y-3674998D01*
X-591184Y-4081411D01*
X-926185Y-4081411D01*
X-692772Y-1000125D02*
G01*
X-413372Y-1254378D01*
X-413372Y-3573398D01*
X-667372Y-3827398D01*
X-926198Y-3827398D01*
X-3288398Y-5775197D02*
G01*
X-2858198Y-6205397D01*
X-2858198Y-6507098D01*
X-3288398Y-5775197D02*
G01*
X-3304400Y-5791200D01*
X-3530600Y-5791200D01*
X-3771900Y-5549900D01*
X-3771900Y-203200D01*
X-3568700Y0D01*
X-2267572Y0D01*
X-2267572Y0D02*
G01*
X-692772Y0D01*
X-692772Y0D02*
G01*
X1097927Y0D01*
X1097927Y0D02*
G01*
X2748927Y0D01*
X-3295891Y-554405D02*
G01*
X-2645905Y-554405D01*
X-2645905Y-554405D02*
G01*
X-1695691Y-554405D01*
X-1695691Y-554405D02*
G01*
X-1045705Y-554405D01*
X-1045705Y-554405D02*
G01*
X-1033005Y-541705D01*
X69608Y-541705D01*
X69608Y-541705D02*
G01*
X719594Y-541705D01*
X719594Y-541705D02*
G01*
X732294Y-529005D01*
X1695208Y-529005D01*
X1695208Y-529005D02*
G01*
X2345194Y-529005D01*
X2345194Y-529005D02*
G01*
X2349588Y-533400D01*
X4356100Y-533400D01*
X4649101Y-826401D01*
X4649101Y-1693798D01*
X-3348405Y-554405D02*
G01*
X-3295891Y-554405D01*
X-3530602Y-736602D02*
G01*
X-3335710Y-541713D01*
X-3308591Y-2713405D02*
G01*
X-3543300Y-2478697D01*
X-3543300Y-749300D01*
X-3308591Y-2713405D02*
G01*
X-2658605Y-2713405D01*
X-3308591Y-3163392D02*
G01*
X-2658605Y-3163392D01*
X-2118398Y-2989198D02*
G01*
X-2292591Y-3163392D01*
X-2658605Y-3163392D01*
X-2118398Y-2989198D02*
G01*
X-2118398Y-2550198D01*
X-1841500Y-2273300D01*
X-1447800Y-2273300D01*
X-926185Y-2794914D01*
X-926185Y-3319386D01*
X-3308591Y-3163392D02*
G01*
X-3305797Y-3166186D01*
X-3305797Y-3789298D01*
X-3543300Y-2478697D02*
G01*
X-3543300Y-3975100D01*
X-3454400Y-4064000D01*
X-3048000Y-4064000D01*
X-2425700Y-3441700D01*
X-1892300Y-3441700D01*
X-1611998Y-3722001D01*
X-1611998Y-3727437D01*
X-2305799Y-3789298D02*
G01*
X-2974200Y-4457700D01*
X-3479800Y-4457700D01*
X-3771900Y-4165600D01*
X-3771900Y-4160177D01*
X-1865998Y-5135498D02*
G01*
X-2226297Y-4775200D01*
X-3288398Y-4775200D01*
X-2146998Y-6456298D02*
G01*
X-1617959Y-5927260D01*
X-1611998Y-5927260D01*
X4649101Y-1693798D02*
G01*
X4171327Y-2171572D01*
X4171327Y-3319398D01*
X4171327Y-3319398D02*
G01*
X4171327Y-4589398D01*
X5334901Y-6303898D02*
G01*
X5503202Y-6135598D01*
X5503202Y-3941698D01*
X1613814Y-4335411D02*
G01*
X1618526Y-4330700D01*
X2438400Y-4330700D01*
X2578100Y-4191000D01*
X2578100Y-1892300D01*
X2776600Y-1693798D01*
X3887101Y-1693798D01*
X-3771900Y-5549900D02*
G01*
X-3771900Y-8343900D01*
X-3581400Y-8534400D01*
X165100Y-8534400D01*
X1613814Y-7085685D01*
X1613814Y-6875411D01*
X165100Y-8534400D02*
G01*
X4965700Y-8534400D01*
X5334901Y-8165198D01*
X5334901Y-6303898D01*
X3408311Y-5588000D02*
G01*
X3644897Y-5824585D01*
X3644897Y-6527797D01*
X3530597Y-6642097D01*
X3213097Y-6642097D01*
X2451100Y-6642100D02*
G01*
X2430411Y-6621411D01*
X1613814Y-6621411D01*
X2793885Y-4445127D02*
G01*
X2793885Y-2159127D01*
X2959239Y-1993772D01*
X4095127Y-1993772D01*
X4395101Y-1693798D01*
X3408311Y-5554598D02*
G01*
X3408311Y-5587872D01*
X2793885Y-4445127D02*
G01*
X2641485Y-4597527D01*
X2641485Y-5156072D01*
X2730385Y-5244972D01*
X3065411Y-5244972D01*
X3408311Y-5587872D01*
X3213100Y-6642100D02*
G01*
X2692400Y-7162800D01*
X2692400Y-8140700D01*
X2298700Y-8534400D01*
X2285588Y-8534400D01*
X1613814Y-6367411D02*
G01*
X2684411Y-6367411D01*
X2959100Y-6642100D01*
X2183988Y-6367411D02*
G01*
X2408300Y-6143099D01*
X2408300Y-5588000D01*
X-1918398Y-2989198D02*
G01*
X-1611998Y-3295599D01*
X-1611998Y-5135498D01*
X1613814Y-6621411D02*
G01*
X1605826Y-6629400D01*
X698500Y-6629400D01*
X254000Y-7073900D01*
X-1485900Y-7073900D01*
X-1611998Y-6947801D01*
X-1611998Y-5135498D01*
G01*
X-2118398Y-2989198D03*
G01*
X-1918398Y-2989198D03*
G01*
X-2346998Y-6456298D03*
G01*
X-2146998Y-6456298D03*
G01*
X-2858198Y-6507098D03*
G01*
X-3058198Y-6507098D03*
D11*
G01*
X3917327Y-3319398D03*
G01*
X4171327Y-3319398D03*
G01*
X-1865998Y-5135498D03*
G01*
X-1611998Y-5135498D03*
D12*
G01*
X5503202Y-3941698D03*
G01*
X4633201Y-3941698D03*
D13*
G01*
X-2350503Y-8081898D03*
D14*
G01*
X-2600693Y-8081898D03*
D15*
G01*
X3887101Y-1693798D03*
G01*
X4141101Y-1693798D03*
G01*
X4395101Y-1693798D03*
G01*
X4649101Y-1693798D03*
G01*
X3213112Y-6642100D03*
G01*
X2959112Y-6642100D03*
G01*
X2705112Y-6642100D03*
G01*
X2451112Y-6642100D03*
D12*
G01*
X5334901Y-6303898D03*
G01*
X4572901Y-6303898D03*
D16*
G01*
X4171327Y-5097398D03*
D12*
G01*
X4171327Y-4843398D03*
G01*
X4171327Y-4589398D03*
D17*
G01*
X2142502Y-3319398D03*
G01*
X3142500Y-3319398D03*
G01*
X-3305797Y-3789298D03*
G01*
X-2305799Y-3789298D03*
G01*
X-3288398Y-5775197D03*
G01*
X-3288398Y-4775200D03*
G01*
X2408313Y-5588000D03*
G01*
X3408311Y-5588000D03*
G01*
X2066302Y-4843398D03*
G01*
X3066300Y-4843398D03*
G01*
X-2267572Y-999997D03*
G01*
X-2267572Y0D03*
G01*
X-692772Y-999997D03*
G01*
X-692772Y0D03*
G01*
X1097927Y-999997D03*
G01*
X1097927Y0D03*
G01*
X2748927Y-999997D03*
G01*
X2748927Y0D03*
D18*
G01*
X-2658605Y-3163392D03*
G01*
X-3308591Y-3163392D03*
G01*
X-3308591Y-2713405D03*
G01*
X-2658605Y-2713405D03*
G01*
X-2645905Y-1004392D03*
G01*
X-3295891Y-1004392D03*
G01*
X-3295891Y-554405D03*
G01*
X-2645905Y-554405D03*
G01*
X-1045705Y-1004392D03*
G01*
X-1695691Y-1004392D03*
G01*
X-1695691Y-554405D03*
G01*
X-1045705Y-554405D03*
G01*
X719594Y-991692D03*
G01*
X69608Y-991692D03*
G01*
X69608Y-541705D03*
G01*
X719594Y-541705D03*
G01*
X2345194Y-978992D03*
G01*
X1695208Y-978992D03*
G01*
X1695208Y-529005D03*
G01*
X2345194Y-529005D03*
D19*
G01*
X-926198Y-3319373D03*
D20*
G01*
X-926172Y-3573424D03*
G01*
X-926172Y-3827424D03*
G01*
X-926172Y-4081424D03*
G01*
X-926172Y-4335424D03*
G01*
X-926172Y-4589424D03*
G01*
X-926172Y-4843424D03*
G01*
X-926172Y-5097424D03*
G01*
X-926172Y-5351424D03*
G01*
X-926172Y-5605424D03*
G01*
X-926172Y-5859424D03*
G01*
X-926172Y-6113424D03*
G01*
X-926172Y-6367424D03*
G01*
X-926172Y-6621424D03*
G01*
X-926172Y-6875424D03*
G01*
X1613827Y-6875424D03*
G01*
X1613827Y-6621424D03*
G01*
X1613827Y-6367424D03*
G01*
X1613827Y-6113424D03*
G01*
X1613827Y-5859424D03*
G01*
X1613827Y-5605424D03*
G01*
X1613827Y-5351424D03*
G01*
X1613827Y-5097424D03*
G01*
X1613827Y-4843424D03*
G01*
X1613827Y-4589424D03*
G01*
X1613827Y-4335424D03*
G01*
X1613827Y-4081424D03*
G01*
X1613827Y-3827424D03*
G01*
X1613827Y-3573424D03*
G01*
X1613827Y-3319424D03*
D21*
G01*
X-2602598Y-7294016D03*
G01*
X-2348572Y-7295006D03*
D22*
G01*
X-2856598Y-7293990D03*
M02*
